<?xml version="1.0" encoding="UTF-8"?> <svg xmlns="http://www.w3.org/2000/svg" xmlns:xlink="http://www.w3.org/1999/xlink" id="Layer_1" data-name="Layer 1" viewBox="0 0 346.5 346.5"> <defs> <style>.cls-1,.cls-14{fill:#fff;}.cls-2{fill:#ababab;}.cls-3{fill:#737374;}.cls-4{fill:#8e8e8e;}.cls-5{fill:#494848;}.cls-6{fill:#bbb;}.cls-7{fill:#aeadae;}.cls-8{fill:#4c4c4c;}.cls-9{fill:gray;}.cls-10{fill:#5b5b5c;}.cls-11{fill:#b4b3b4;}.cls-12{fill:#444445;}.cls-13{fill:#252525;}.cls-14{opacity:0.33;}.cls-15{fill:#515050;}.cls-16{fill:#3f4040;}.cls-17{fill:#323232;}.cls-18{fill:#363636;}.cls-19{fill:#2c2c2c;}.cls-20{fill:#575757;}.cls-21{fill:#1e2122;}.cls-22{fill:url(#New_Gradient_Swatch);}.cls-23{fill:url(#New_Gradient_Swatch-2);}.cls-24{fill:url(#New_Gradient_Swatch-3);}.cls-25{fill:url(#New_Gradient_Swatch-4);}.cls-26{fill:url(#radial-gradient);}.cls-27{fill:url(#radial-gradient-2);}.cls-28{fill:url(#linear-gradient);}.cls-29{fill:url(#linear-gradient-2);}.cls-30{fill:url(#linear-gradient-3);}.cls-31{fill:url(#linear-gradient-4);}.cls-32{fill:url(#linear-gradient-5);}.cls-33{fill:url(#linear-gradient-6);}.cls-34{fill:url(#linear-gradient-7);}.cls-35{fill:url(#linear-gradient-8);}</style> <linearGradient id="New_Gradient_Swatch" x1="189.56" y1="277.61" x2="189.56" y2="306.2" gradientUnits="userSpaceOnUse"> <stop offset="0" stop-color="#43c4d9"></stop> <stop offset="1" stop-color="#0370a3"></stop> </linearGradient> <linearGradient id="New_Gradient_Swatch-2" x1="211.75" y1="277.61" x2="211.75" y2="306.2" xlink:href="#New_Gradient_Swatch"></linearGradient> <linearGradient id="New_Gradient_Swatch-3" x1="238.38" y1="277.61" x2="238.38" y2="306.2" xlink:href="#New_Gradient_Swatch"></linearGradient> <linearGradient id="New_Gradient_Swatch-4" x1="263.19" y1="277.61" x2="263.19" y2="306.2" xlink:href="#New_Gradient_Swatch"></linearGradient> <radialGradient id="radial-gradient" cx="181.95" cy="170.42" r="102.62" gradientTransform="translate(574.08 -11.53) rotate(90) scale(1 2.3)" gradientUnits="userSpaceOnUse"> <stop offset="0.19" stop-color="#43c4d9"></stop> <stop offset="0.39" stop-color="#0370a3"></stop> <stop offset="0.48" stop-color="#00385c"></stop> </radialGradient> <radialGradient id="radial-gradient-2" cx="181.95" cy="170.42" r="102.33" gradientTransform="translate(573.19 -11.53) rotate(90) scale(1 2.3)" xlink:href="#radial-gradient"></radialGradient> <linearGradient id="linear-gradient" x1="241.76" y1="115.61" x2="241.76" y2="171.77" gradientUnits="userSpaceOnUse"> <stop offset="0" stop-color="#f2f2f2"></stop> <stop offset="0.2" stop-color="#ddd"></stop> <stop offset="0.49" stop-color="#c6c6c6"></stop> <stop offset="0.77" stop-color="#b8b8b8"></stop> <stop offset="1" stop-color="#b3b3b3"></stop> </linearGradient> <linearGradient id="linear-gradient-2" x1="241.87" y1="115.61" x2="241.87" y2="171.77" xlink:href="#linear-gradient"></linearGradient> <linearGradient id="linear-gradient-3" x1="214.73" y1="115.61" x2="214.73" y2="171.77" xlink:href="#linear-gradient"></linearGradient> <linearGradient id="linear-gradient-4" x1="180.65" y1="115.61" x2="180.65" y2="171.77" xlink:href="#linear-gradient"></linearGradient> <linearGradient id="linear-gradient-5" x1="119.53" y1="115.61" x2="119.53" y2="171.77" xlink:href="#linear-gradient"></linearGradient> <linearGradient id="linear-gradient-6" x1="119.41" y1="115.61" x2="119.41" y2="171.77" xlink:href="#linear-gradient"></linearGradient> <linearGradient id="linear-gradient-7" x1="146.55" y1="115.61" x2="146.55" y2="171.77" xlink:href="#linear-gradient"></linearGradient> <linearGradient id="linear-gradient-8" x1="180.73" y1="115.61" x2="180.73" y2="171.77" xlink:href="#linear-gradient"></linearGradient> </defs> <title>Koala Cool Logo - Circle</title> <circle class="cls-1" cx="173.25" cy="173.25" r="173.25"></circle> <path class="cls-2" d="M206.42,239.57l-.45-.06Z" transform="translate(-6.75 -6.75)"></path> <path class="cls-2" d="M207.18,239.75l-.46-.13Z" transform="translate(-6.75 -6.75)"></path> <path class="cls-2" d="M235.86,213.39a7.05,7.05,0,0,0-2.71,1.06q-1.77,2.19-3.89,5.37t-4.56,7.24q-2.46,4-5.07,8.89c-.06.1-.11.2-.16.3h0l.16-.3q2.63-4.84,5.07-8.89t4.56-7.24q2.12-3.18,3.89-5.37a7.05,7.05,0,0,1,2.71-1.06,39.07,39.07,0,0,1,4.69-.89h0A36.85,36.85,0,0,0,235.86,213.39Z" transform="translate(-6.75 -6.75)"></path> <path class="cls-2" d="M205,239.49c.22,0,.43,0,.64,0H205Z" transform="translate(-6.75 -6.75)"></path> <path class="cls-2" d="M191.19,237.67a25,25,0,0,0-4.53,2,32,32,0,0,0-4.81,3.36,35.72,35.72,0,0,0-4.82,4.91,38.52,38.52,0,0,0-4.71,7.23h0a38.52,38.52,0,0,1,4.71-7.23,36.3,36.3,0,0,1,4.82-4.91,31.53,31.53,0,0,1,4.82-3.36,23.74,23.74,0,0,1,8.53-2.92c.45-.06.93-.11,1.43-.14-.5,0-1,.08-1.43.14A23.49,23.49,0,0,0,191.19,237.67Z" transform="translate(-6.75 -6.75)"></path> <path class="cls-2" d="M200.3,236.71c-.16,0-.32-.06-.48-.07C200,236.65,200.14,236.69,200.3,236.71Z" transform="translate(-6.75 -6.75)"></path> <path class="cls-2" d="M198.21,236.56c.29,0,.57,0,.85,0-.27,0-.55,0-.83,0Z" transform="translate(-6.75 -6.75)"></path> <path class="cls-2" d="M244.66,212.18a35.83,35.83,0,0,0-3.95.3A35.83,35.83,0,0,1,244.66,212.18Z" transform="translate(-6.75 -6.75)"></path> <path class="cls-2" d="M160,241.68l-.34,0Z" transform="translate(-6.75 -6.75)"></path> <path class="cls-2" d="M198.34,241.39a3,3,0,0,0-.55.2A3,3,0,0,1,198.34,241.39Z" transform="translate(-6.75 -6.75)"></path> <path class="cls-2" d="M245.67,212.18Z" transform="translate(-6.75 -6.75)"></path> <path class="cls-2" d="M245.17,212.17h0Z" transform="translate(-6.75 -6.75)"></path> <path class="cls-2" d="M199.81,241.37a2.8,2.8,0,0,0-.64-.08,2.87,2.87,0,0,1,.64.08c.7.17.8.68.29,1.52q-1,1.41-2.49,3.42t-3.13,4.14c-.9,1.17-1.84,2.32-2.8,3.44h0c.95-1.13,1.89-2.27,2.8-3.44,1.09-1.43,2.14-2.81,3.12-4.15s1.82-2.47,2.5-3.41C200.61,242.05,200.51,241.54,199.81,241.37Z" transform="translate(-6.75 -6.75)"></path> <path class="cls-2" d="M199,241.29a3.18,3.18,0,0,0-.43.06A3.18,3.18,0,0,1,199,241.29Z" transform="translate(-6.75 -6.75)"></path> <path class="cls-2" d="M157.09,249.46h0a1.5,1.5,0,0,0,.85.37l1.27.26h0c-.45-.1-.87-.19-1.27-.26A1.43,1.43,0,0,1,157.09,249.46Z" transform="translate(-6.75 -6.75)"></path> <path class="cls-2" d="M156.24,252.57a7.63,7.63,0,0,0-1.57,3,5.43,5.43,0,0,0-.09.56h0a5.48,5.48,0,0,1,.1-.56,7.48,7.48,0,0,1,1.56-3,10.06,10.06,0,0,1,3.38-2.52h0A10,10,0,0,0,156.24,252.57Z" transform="translate(-6.75 -6.75)"></path> <path class="cls-2" d="M208,240.07q-.28-.13-.57-.24Q207.74,239.94,208,240.07Z" transform="translate(-6.75 -6.75)"></path> <path class="cls-2" d="M121.82,226.4l-.34,0Z" transform="translate(-6.75 -6.75)"></path> <path class="cls-2" d="M124,226.76l-.24,0Z" transform="translate(-6.75 -6.75)"></path> <path class="cls-2" d="M115,243.07h0q7.52-5.56,14.58-10.29t13.14-8l-.05,0q-6.06,3.31-13.1,8T115,243.07Z" transform="translate(-6.75 -6.75)"></path> <path class="cls-2" d="M149.83,223.17l.83,0-.72,0Z" transform="translate(-6.75 -6.75)"></path> <path class="cls-2" d="M119.37,226.18h0Z" transform="translate(-6.75 -6.75)"></path> <path class="cls-2" d="M116.7,226.1h0Z" transform="translate(-6.75 -6.75)"></path> <path class="cls-2" d="M114.82,221.34c.67,0,1.34,0,2,0a38.63,38.63,0,0,1,10.4,1.29,4.83,4.83,0,0,1,3.36,3.52c0,.09,0,.17.05.25,3.29-2.1,6.43-4,9.39-5.6l.17-.1a17.19,17.19,0,0,1,6.44-2.09,28.71,28.71,0,0,1,3.32-.2c.92,0,1.85,0,2.77.14a32.81,32.81,0,0,1,5.6,1.06,25.41,25.41,0,0,1,4.68,1.77,4.8,4.8,0,0,1-.07,8.58c-2.16,1.06-4.58,2.36-7.18,3.84s-5.46,3.15-8.37,4.88-5.83,3.55-8.79,5.44-6,3.82-8.84,5.7-5.61,3.71-8.17,5.48c-1.31.9-2.56,1.78-3.75,2.62h0a35,35,0,0,0,1.72,3.62,14.51,14.51,0,0,0,1.88,2.74,1.07,1.07,0,0,0,.44.33,4.09,4.09,0,0,0,.85-.33,26.42,26.42,0,0,0,3.84-2.34c1.52-1.09,3.14-2.36,4.82-3.77l2-1.73c.43-.9.91-1.79,1.42-2.66a39.83,39.83,0,0,1,2.75-4.05l.13-.16a47.37,47.37,0,0,1,5.32-5.42,33.18,33.18,0,0,1,5.22-3.74,26,26,0,0,1,5.07-2.27,26.91,26.91,0,0,1,4.58-1,23.63,23.63,0,0,1,3.18-.22,17.32,17.32,0,0,1,6.1,1,9.64,9.64,0,0,1,5.46,4.74,7.46,7.46,0,0,1,1.64,1.16,40,40,0,0,1,4.51-4.44,37.11,37.11,0,0,1,5.55-3.85,29.58,29.58,0,0,1,5.41-2.39,29.14,29.14,0,0,1,4.84-1.1,28.76,28.76,0,0,1,3.65-.23,20.36,20.36,0,0,1,4,.39,12.18,12.18,0,0,1,4.09,1.56A7.87,7.87,0,0,1,207.9,235a11,11,0,0,1,2.4.88,10.31,10.31,0,0,1,2.85,2l2.26-4.21c1.77-3.27,3.52-6.33,5.18-9.09s3.24-5.24,4.67-7.4,2.89-4.17,4.16-5.74a5.14,5.14,0,0,1,.38-.42c1-1,2.39-1.64,4.86-2.27a44.24,44.24,0,0,1,5.26-1,40.43,40.43,0,0,1,4.47-.36c-6.56-17.83-19.24-25.21-19.24-25.21l-44.09,20.48L137,182.17s-18.76,14.64-24.06,39.28C113.54,221.41,114.19,221.36,114.82,221.34Z" transform="translate(-6.75 -6.75)"></path> <path class="cls-2" d="M112.06,226.3h0c1-.07,2-.13,2.93-.17h0C114,226.17,113.05,226.23,112.06,226.3Z" transform="translate(-6.75 -6.75)"></path> <path class="cls-2" d="M151,223.2l1.2.09.31,0-.32,0C151.82,223.25,151.43,223.22,151,223.2Z" transform="translate(-6.75 -6.75)"></path> <path class="cls-2" d="M149,223.2l-.49,0Z" transform="translate(-6.75 -6.75)"></path> <path class="cls-2" d="M162.28,241.68h0Z" transform="translate(-6.75 -6.75)"></path> <path class="cls-2" d="M164.57,242.08l-.24-.07Z" transform="translate(-6.75 -6.75)"></path> <path class="cls-2" d="M163.57,241.85l-.26,0Z" transform="translate(-6.75 -6.75)"></path> <path class="cls-2" d="M142.55,224.84l.16-.09h0a12.23,12.23,0,0,1,4.51-1.42h0A12.13,12.13,0,0,0,142.55,224.84Z" transform="translate(-6.75 -6.75)"></path> <path class="cls-2" d="M154.76,242.68a20.1,20.1,0,0,0-4.14,1.86,29.56,29.56,0,0,0-4.48,3.21,44.56,44.56,0,0,0-4.78,4.88,35.68,35.68,0,0,0-2.41,3.56c-.43.72-.81,1.46-1.17,2.2h0c.36-.74.74-1.48,1.17-2.2a34.05,34.05,0,0,1,2.41-3.56,43.65,43.65,0,0,1,4.77-4.88,29.56,29.56,0,0,1,4.48-3.21,20.58,20.58,0,0,1,4.14-1.86,22.62,22.62,0,0,1,3.76-.87h0A22.4,22.4,0,0,0,154.76,242.68Z" transform="translate(-6.75 -6.75)"></path> <path class="cls-2" d="M160.87,241.65h0Z" transform="translate(-6.75 -6.75)"></path> <g id="Head"> <path class="cls-3" d="M305.28,92.61A86.34,86.34,0,0,0,299,81.33c0-.07-.1-.15-.16-.22-.45-.66-.93-1.31-1.44-1.94-3-3.78-6.6-5.8-10.59-8.15-2.2-1.29-3.13-2.09-3.06-2.75h0c.1-.75,1.49-1.31,3.81-2.2L287.4,66c-5.49-2.69-12.71-2-18.1.57,0-.07.07-.15.11-.22l1.33-2.55-.12.08A41.18,41.18,0,0,1,252,70c.05-.06.08-.12.13-.17l2.34-3.37-.12,0a27.33,27.33,0,0,0-7.36,1.8,2.25,2.25,0,0,1,.12-.21,8.14,8.14,0,0,1,3-3.07l-.36.07s0,0,0,0a28.33,28.33,0,0,0-15.37,8,1.87,1.87,0,0,1,.07-.22h0a28.67,28.67,0,0,1,4.3-8.92l-.16.07c-3.54,1.54-6.09,4.85-8.87,7.66-.84.86-4.43,4.61-5.76,4.78a.2.2,0,0,1-.11,0c-1.79-.09-4.14-1.9-2.11-4.1L217,73.71a1.66,1.66,0,0,1-.93.09c-.84-.27-.83-1.55-.54-2.44s.65-2,0-2.66a9.37,9.37,0,0,1-11.14,3l3.22-3.18L189,71.07c1.12-1.75,2.24-3.51,3.37-5.26-4.26,1-7.74,3.77-11.56,5.49-3.81-1.72-7.29-4.44-11.55-5.49l3.37,5.26-18.69-2.54,3.22,3.18a9.37,9.37,0,0,1-11.14-3c-.61.68-.25,1.78,0,2.66s.3,2.17-.54,2.44a1.66,1.66,0,0,1-.93-.09l-4.74-1.34c2,2.2-.32,4-2.11,4.1a.2.2,0,0,1-.11,0c-1.33-.17-4.92-3.92-5.76-4.78-2.78-2.81-5.33-6.12-8.87-7.66l-.16-.07a28.67,28.67,0,0,1,4.3,8.92h0l.07.22a28.33,28.33,0,0,0-15.37-8s0,0,0,0l-.36-.07a8.1,8.1,0,0,1,3,3.07,2.25,2.25,0,0,1,.12.21,27.33,27.33,0,0,0-7.36-1.8l-.12,0,2.34,3.37c.05,0,.08.11.13.17A41.18,41.18,0,0,1,91,63.85l-.12-.08,1.33,2.55.11.22C86.94,64,79.72,63.28,74.23,66l-.19.09c2.32.89,3.71,1.45,3.81,2.2h0c.07.66-.86,1.46-3.06,2.75-4,2.35-7.56,4.37-10.6,8.15-.5.63-1,1.28-1.43,1.94-.06.07-.11.15-.16.22a87.59,87.59,0,0,0-6.26,11.28,16.38,16.38,0,0,1,8.12-5.71,40.69,40.69,0,0,1-4.22,7.69,32.62,32.62,0,0,1,7.39.16,5.74,5.74,0,0,1-7.78.59c2,4.21,4.73,9,9.12,9.19a9,9,0,0,1-8.15,1,28.7,28.7,0,0,0,16.47,9.22l-3,8.18a10.72,10.72,0,0,1,9.19-.15c-.06.17-.11.33-.18.49h0a8.58,8.58,0,0,1-3.26,4.09,27.65,27.65,0,0,1,8.32.31,14.37,14.37,0,0,1-4.27,7l-.59.5a20.7,20.7,0,0,0,3.6.15,21.77,21.77,0,0,0,8-1.84,21.15,21.15,0,0,1-3.84,5h.71c1.3,0,2.6,0,3.89-.11,2.16-.09,4.31-.27,6.46-.52.51-.06,1.32-.26,2.28-.49,2.69-.66,6.49-1.6,7.57-.55a1.4,1.4,0,0,1,.31.44,2.47,2.47,0,0,1,.2,1v0c0,2.28-1.78,6-2.11,7.6a44.9,44.9,0,0,0-.91,7c0,.34,0,.68,0,1q0,1,0,1.92,0,.54,0,1.08c.75-2.26,1.61-4.65,3.46-6a0,0,0,0,1,0,0c0,.48,0,1-.07,1.44s0,1,0,1.45v.83c0,.56,0,1.12,0,1.67s0,1.14.06,1.71a66.11,66.11,0,0,0,1.3,10.29,1.73,1.73,0,0,1,0-.32h0a.06.06,0,0,1,0,0s0,0,0,0a3.65,3.65,0,0,1,1.92-2.65h0c-.07.6-.11,1.2-.13,1.82s0,1.06,0,1.59c.2,5.57,2.22,11.61,4.33,16.35a6.13,6.13,0,0,1,1.49-2.58,53.54,53.54,0,0,0,8.76,9l.06-1.6a43.8,43.8,0,0,0,15.67,9.35l1.17.41c10.67,3.59,22.7,4.25,32.85,3.42l.2,0,.21,0c10.15.83,22.18.17,32.85-3.42l1.17-.41a43.8,43.8,0,0,0,15.67-9.35l.06,1.6a53.54,53.54,0,0,0,8.76-9A6.13,6.13,0,0,1,241,185c2.11-4.74,4.13-10.78,4.33-16.35,0-.53,0-1.06,0-1.59s-.06-1.22-.13-1.82h0a3.65,3.65,0,0,1,1.92,2.65s0,0,0,0a.06.06,0,0,1,0,0h0a1.73,1.73,0,0,1,0,.32,66.11,66.11,0,0,0,1.3-10.29q0-.86.06-1.71c0-.55,0-1.11,0-1.67v-.83c0-.49,0-1,0-1.45s0-1-.07-1.44a0,0,0,0,1,0,0c1.85,1.33,2.71,3.72,3.46,6q0-.54,0-1.08,0-1,0-1.92c0-.34,0-.68,0-1a44.9,44.9,0,0,0-.91-7c-.33-1.59-2.16-5.32-2.11-7.6v0a2.47,2.47,0,0,1,.2-1,1.4,1.4,0,0,1,.31-.44c1.08-1.05,4.88-.11,7.57.55.95.23,1.77.43,2.28.49,2.15.25,4.3.43,6.46.52,1.29.07,2.59.1,3.89.11h.71a21.15,21.15,0,0,1-3.84-5,21.77,21.77,0,0,0,8,1.84,20.7,20.7,0,0,0,3.6-.15l-.59-.5a14.37,14.37,0,0,1-4.27-7,27.65,27.65,0,0,1,8.32-.31,8.58,8.58,0,0,1-3.26-4.09h0c-.07-.16-.12-.32-.18-.49a10.72,10.72,0,0,1,9.19.15l-3-8.18a28.7,28.7,0,0,0,16.47-9.22,9,9,0,0,1-8.15-1c4.39-.19,7.16-5,9.12-9.19a5.75,5.75,0,0,1-7.79-.59,32.72,32.72,0,0,1,7.4-.16,40.69,40.69,0,0,1-4.22-7.69A16.36,16.36,0,0,1,305.28,92.61Z" transform="translate(-6.75 -6.75)"></path> <path class="cls-4" d="M197.14,185.19c-.09-.22-.16-.42-.23-.61-.43-1.22-.65-1.77-1.77-1.56a6.39,6.39,0,0,0-.73.2,18.7,18.7,0,0,1-11.39.34,6.59,6.59,0,0,0-4.41,0,18.7,18.7,0,0,1-11.39-.34,6.39,6.39,0,0,0-.73-.2c-1.12-.21-1.34.34-1.77,1.56-.07.19-.14.39-.23.61a9.84,9.84,0,0,0-.44,5.9,1,1,0,0,1,.89-.47,9.29,9.29,0,0,0,2.07,5.31c-.09-.7.84-.76,1.19-.43s.59,1.68.9,2.21a8,8,0,0,0,3.52,3.29c-.14-.43-.29-.86-.44-1.29a11.09,11.09,0,0,0,5.6,2,2.21,2.21,0,0,1-1-1.12c1,.26,1.55-.17,2.46-.18,0,.18-.14,1.31-.4,1.31a6.78,6.78,0,0,0,2-.3,6.89,6.89,0,0,0,2,.3c-.26,0-.41-1.13-.4-1.31.91,0,1.44.44,2.46.18a2.21,2.21,0,0,1-1,1.12,11.09,11.09,0,0,0,5.6-2c-.15.43-.3.86-.44,1.29a8,8,0,0,0,3.52-3.29c.31-.53.52-1.84.9-2.21s1.28-.27,1.19.43a9.29,9.29,0,0,0,2.07-5.31,1,1,0,0,1,.89.47A9.84,9.84,0,0,0,197.14,185.19Z" transform="translate(-6.75 -6.75)"></path> <path class="cls-5" d="M203.13,170.76A13.94,13.94,0,0,1,197,180a12.22,12.22,0,0,1-5.24,1.76h0a12.06,12.06,0,0,1-5.32-.67l-.15-.06c-.33-.12-.64-.26-1-.39a18.72,18.72,0,0,0-4.47-1.72,18.82,18.82,0,0,0-4.46,1.72c-.32.13-.63.27-1,.39l-.15.06a12.06,12.06,0,0,1-5.32.67h0a12.22,12.22,0,0,1-5.24-1.76,13.91,13.91,0,0,1-6.18-9.24c-.8,1.36-.42,3.15.09,4.65a20,20,0,0,0,6,9l.17.13a11.57,11.57,0,0,0,9.7,2.45c2.18-.53,4.18-1.8,6.39-2,2.22.24,4.22,1.51,6.4,2a11.57,11.57,0,0,0,9.7-2.45l.17-.13a19.85,19.85,0,0,0,5.95-9C203.55,173.91,203.93,172.12,203.13,170.76Z" transform="translate(-6.75 -6.75)"></path> <path class="cls-6" d="M284.55,84.2a6.24,6.24,0,0,0-.28-3.13,5,5,0,0,0-1.85-1.94c-6.82-4.71-15.67-3.68-23.66-2.14a30.72,30.72,0,0,0-7.84,2.31c-5.13,2.54-8.86,7.89-10.15,13.79a27.35,27.35,0,0,0,2.39,17.61,20.59,20.59,0,0,0,3.44,5.1c3.45,3.64,9.48,6.44,14.26,7.2,4.57.74,7.64-3.39,10.44-6.76A59.23,59.23,0,0,0,284.55,84.2Z" transform="translate(-6.75 -6.75)"></path> <path class="cls-7" d="M250.89,91.57l5.91.23-2.29,2.72a37.38,37.38,0,0,1,7.19,3.65l-5.39,3.71c-.45.31-.94.7-.95,1.23,0,.69.74,1.09,1.4,1.29a21.16,21.16,0,0,0,13.43-.4l-6.35,5.28A17.07,17.07,0,0,1,276,112.75l-5,1.93,9.82,6.67L277,122.71a36.33,36.33,0,0,0,9.31,2.83l-7.11,4.65c1.28.84.86,3-.43,3.89a5.71,5.71,0,0,1-4.47.35c.4,1.75.58,4-1,4.93-2.54,1.43-4.86-2.92-7.75-2.74.09,1.36.17,2.72.26,4.09a28.74,28.74,0,0,1-6-1.86c-.6,1.48-2.54,2-4,1.55a9.25,9.25,0,0,1-3.73-2.76c0,.83-.08,1.67-.13,2.51-6.67-5.76-9-15.12-14.66-21.91a3.71,3.71,0,0,0,3.5-1.12,13.3,13.3,0,0,1-4.53-4.51c1.2.43,2.34-1.18,2-2.42a5.4,5.4,0,0,0-2.48-2.78,9,9,0,0,1-3.45-3.54c-.66-1.53-.22-3.69,1.34-4.36-2.47,1.06-.08-6,.5-6.66A23.49,23.49,0,0,1,241,88c4-1.88,10.09-2.16,14.32-1.69C254,88.17,252.39,89.85,250.89,91.57Z" transform="translate(-6.75 -6.75)"></path> <path class="cls-8" d="M299,81.17a32.67,32.67,0,0,0-4.13-1.11c-2.31-.52-11.23-5.08-11.13-.55-3-1.2-5.85-2.43-9.18-2.53.53,1.13,1.08,2.25,1.61,3.38a35.35,35.35,0,0,0-25.1,6.74,9.79,9.79,0,0,1,6.43,3.15,35.18,35.18,0,0,0-14,6.81c-4,3-7.5,4.53-9.34,9.91a26.91,26.91,0,0,1-3.94-9,8.23,8.23,0,0,1-4-.44A4,4,0,0,0,230,96.11a30.85,30.85,0,0,1-8.87-7.33l3.92-1A17,17,0,0,1,221,79l2.87.37c.06-1.36.14-2.71.25-4.07a14.14,14.14,0,0,0,5.67-3.77c2.82-2.86,5.41-6.23,9-7.73a29,29,0,0,0-4.37,9.15,28.35,28.35,0,0,1,15.74-8.05A8.18,8.18,0,0,0,247,68.16a27.37,27.37,0,0,1,7.48-1.82L252,69.88a41.28,41.28,0,0,0,18.7-6.27l-1.44,2.76c5.45-2.61,12.77-3.27,18.29-.47-4.38,1.67-5.44,2.19-.75,5,4,2.35,7.56,4.37,10.59,8.15C298,79.71,298.53,80.43,299,81.17Z" transform="translate(-6.75 -6.75)"></path> <path class="cls-4" d="M251,145.66a44.47,44.47,0,0,1,.92,11.05c-.75-2.25-1.61-4.64-3.47-6a66.75,66.75,0,0,1-1.27,17.39c.25-1.22-1-2.62-1.92-3.05.74,6.41-1.67,14-4.22,19.76a6.15,6.15,0,0,0-1.49-2.57,53.92,53.92,0,0,1-8.76,9l-.06-1.6A44,44,0,0,1,215,199l.25-.17a39.6,39.6,0,0,0,14.78-18c.32-.77.69-1.62,1.42-1.9a1.12,1.12,0,0,1,1.36.74l2.64-14.78c.57,1.45,2.82,1.14,3.56-.22s.43-3.08,0-4.58-1.05-3.06-.76-4.6c1.61,0,1.84-2.61,1-4.06s-2.28-2.81-2.05-4.51c.34-2.55,3.67-2.78,6-2.33-1-5-5.74-16.89-.24-20.56,6.86-4.59,11.7,6.43,13.41,11.47.19.56.37,1.12.56,1.67-2.69-.65-6.49-1.59-7.57-.55C247.74,138.2,250.56,143.64,251,145.66Z" transform="translate(-6.75 -6.75)"></path> <path class="cls-6" d="M77.08,84.2a6.24,6.24,0,0,1,.28-3.13,5,5,0,0,1,1.85-1.94C86,74.42,94.88,75.45,102.87,77a30.72,30.72,0,0,1,7.84,2.31c5.13,2.54,8.86,7.89,10.15,13.79a27.35,27.35,0,0,1-2.39,17.61,20.59,20.59,0,0,1-3.44,5.1c-3.45,3.64-9.48,6.44-14.26,7.2-4.58.74-7.64-3.39-10.44-6.76A59.23,59.23,0,0,1,77.08,84.2Z" transform="translate(-6.75 -6.75)"></path> <path class="cls-7" d="M110.74,91.57l-5.91.23,2.29,2.72a37.38,37.38,0,0,0-7.19,3.65l5.39,3.71c.45.31.94.7,1,1.23,0,.69-.74,1.09-1.4,1.29a21.16,21.16,0,0,1-13.43-.4l6.35,5.28a17.07,17.07,0,0,0-12.12,3.47l5,1.93-9.82,6.67,3.71,1.36a36.33,36.33,0,0,1-9.31,2.83l7.11,4.65c-1.28.84-.86,3,.43,3.89a5.71,5.71,0,0,0,4.47.35c-.4,1.75-.58,4,1,4.93,2.53,1.43,4.86-2.92,7.75-2.74-.09,1.36-.17,2.72-.26,4.09a28.74,28.74,0,0,0,6-1.86c.6,1.48,2.54,2,4,1.55a9.25,9.25,0,0,0,3.73-2.76c0,.83.08,1.67.13,2.51,6.67-5.76,9-15.12,14.66-21.91a3.74,3.74,0,0,1-3.51-1.12,13.24,13.24,0,0,0,4.54-4.51c-1.2.43-2.34-1.18-2-2.42a5.4,5.4,0,0,1,2.48-2.78,9,9,0,0,0,3.45-3.54c.66-1.53.22-3.69-1.34-4.36,2.47,1.06.08-6-.5-6.66A23.49,23.49,0,0,0,120.61,88c-4-1.88-10.09-2.16-14.32-1.69C107.62,88.17,109.24,89.85,110.74,91.57Z" transform="translate(-6.75 -6.75)"></path> <path class="cls-8" d="M62.6,81.17a32.67,32.67,0,0,1,4.13-1.11C69,79.54,78,75,77.86,79.51c3-1.2,5.85-2.43,9.18-2.53-.53,1.13-1.08,2.25-1.61,3.38a35.35,35.35,0,0,1,25.1,6.74,9.79,9.79,0,0,0-6.43,3.15,35.18,35.18,0,0,1,14,6.81c4,3,7.5,4.53,9.34,9.91a26.91,26.91,0,0,0,3.94-9,8.23,8.23,0,0,0,4-.44,4,4,0,0,1-3.76-1.46,30.85,30.85,0,0,0,8.87-7.33l-3.92-1A17,17,0,0,0,140.66,79l-2.87.37c-.06-1.36-.14-2.71-.25-4.07a14.14,14.14,0,0,1-5.67-3.77c-2.82-2.86-5.41-6.23-9-7.73a29,29,0,0,1,4.37,9.15,28.35,28.35,0,0,0-15.75-8.05,8.14,8.14,0,0,1,3.14,3.28,27.37,27.37,0,0,0-7.48-1.82l2.47,3.54a41.28,41.28,0,0,1-18.7-6.27l1.44,2.76C86.88,63.76,79.56,63.1,74,65.9c4.38,1.67,5.44,2.19.75,5-4,2.35-7.56,4.37-10.6,8.15Q63.35,80.06,62.6,81.17Z" transform="translate(-6.75 -6.75)"></path> <path class="cls-4" d="M110.65,145.66a44.47,44.47,0,0,0-.92,11.05c.75-2.25,1.61-4.64,3.47-6a66.75,66.75,0,0,0,1.27,17.39c-.25-1.22,1-2.62,1.92-3.05-.74,6.41,1.67,14,4.22,19.76a6.15,6.15,0,0,1,1.49-2.57,53.92,53.92,0,0,0,8.76,9l.06-1.6A44,44,0,0,0,146.59,199l-.25-.17a39.6,39.6,0,0,1-14.78-18c-.32-.77-.69-1.62-1.42-1.9a1.12,1.12,0,0,0-1.36.74l-2.64-14.78c-.57,1.45-2.82,1.14-3.56-.22s-.43-3.08,0-4.58,1-3.06.75-4.6c-1.6,0-1.83-2.61-1-4.06s2.28-2.81,2-4.51c-.34-2.55-3.67-2.78-6-2.33,1-5,5.74-16.89.24-20.56-6.86-4.59-11.7,6.43-13.41,11.47-.19.56-.37,1.12-.56,1.67,2.69-.65,6.49-1.59,7.57-.55C113.89,138.2,111.07,143.64,110.65,145.66Z" transform="translate(-6.75 -6.75)"></path> <path class="cls-9" d="M158.35,81.78a8.79,8.79,0,0,0,5,4.08,32.44,32.44,0,0,0-19.73,8.75l6.2.43a51.73,51.73,0,0,0-19.6,28.33,15.13,15.13,0,0,1,7.28-5.92,42.33,42.33,0,0,0-2.63,13.19,17.32,17.32,0,0,1,5.27-6.7,9.1,9.1,0,0,0,1.36,3.77l3.25-3.53c.35,1.44,1.14,3.22,2.52,3s1.77-2.07,2.75-3.1c1.51-1.61,4.29-.7,5.49,1.18s1.27,4.32,1.3,6.6c2.19-.26,3.46-2.68,4.67-4.65s3.43-3.94,5.4-2.87c1.06.58,1.59,1.86,2.27,2.91s1.9,2,3,1.5c1.4-.67,2-3.42,3.43-2.75.45.21.74.77,1.23.83.75.11,1.1-1,1.68-1.47,1.11-1,2.73.16,3.66,1.34s2.19,2.59,3.54,2.06a11.66,11.66,0,0,1,2.65-5.52,17.18,17.18,0,0,1,5.21,10.31l2.63-6.33a2.18,2.18,0,0,1,.82-1.15c1.41-.73,2.4,2.24,4,2.11-.49-1.58,1.26-3.12,2.8-2.94s2.79,1.4,3.91,2.56a9,9,0,0,0,1.18-5.51,12.47,12.47,0,0,1,11.1,7.25q-.27-3.57-.55-7.16l4.66,1.59a11.5,11.5,0,0,0-.23-6.29l5.68,1.63L224.38,108c1,1.1,2.87-.34,2.78-1.86s-1.29-2.66-2.42-3.58a59.11,59.11,0,0,0-10.84-7l4.61-1.52c-.31-2.21-2.5-3.51-4.53-4s-4.24-.58-6-1.82l6.44-3a56.86,56.86,0,0,0-18.55-1.57L200.33,79q-7.53,2-14.91,4.67A14.86,14.86,0,0,1,188,77.83c-2.23,3-5.8,5.39-8.89,7.27-.23-2.12-6.17-6.54-6.29-5.45l-.51,4.6C167.69,81.42,163.45,81.26,158.35,81.78Z" transform="translate(-6.75 -6.75)"></path> <path class="cls-9" d="M132.33,171.22a12.13,12.13,0,0,1,2.74-5c.77,2,.65,4.25.91,6.4s1.1,4.48,3,5.32a6.16,6.16,0,0,1,1.44-3.27,30.23,30.23,0,0,0,3,7.2,9.1,9.1,0,0,0,5.9,4.36,13.22,13.22,0,0,1-1.95-10.52,4.75,4.75,0,0,0,2.79,2.56,45.15,45.15,0,0,1,.45-10c0,1.05,1.5,1.38,2.18.64a4.2,4.2,0,0,0,.69-3l-.14-5.77c.57,3.9,3.88-.59,4.26-2,.31-1.17.08-10.27.05-10.25a5.78,5.78,0,0,0-1.75,2.06A4.55,4.55,0,0,1,154,152a1.6,1.6,0,0,1-2.18-.88c-1.29.06-1.8,2.2-3.09,2.31s-1.93-2-3.23-2.57c.38.91-.68,1.92-1.6,1.73a3.18,3.18,0,0,1-2-2,9.75,9.75,0,0,0-1.36-2.6,1.79,1.79,0,0,0-2.51-.33c-.44.46-.54,1.21-1,1.65a1.6,1.6,0,0,1-2.1-.1,5.45,5.45,0,0,1-1.28-2c-.63-1.43-1.24-2.88-1.91-4.28-3.47,3.39-3.11,11.66-2.9,16.29a5.27,5.27,0,0,1,1.83-2.74C131.25,160.51,133.41,167.26,132.33,171.22Z" transform="translate(-6.75 -6.75)"></path> <path class="cls-9" d="M209.51,160.23a23.32,23.32,0,0,1-.45,6.87c1.16-1.06,3.1-2,4-.7a2.9,2.9,0,0,1,.35,1.3,18.51,18.51,0,0,1-2.05,10.23,4.78,4.78,0,0,1,3.79-3.27c1.64,4.06-1,8.54-3.52,12.06a29.91,29.91,0,0,0,9.68-13.84,5.44,5.44,0,0,0,.63,3.36l1.2-4c.16-.55.45-1.2,1-1.2.95,0,1.51,2.06,2.25,1.41q.85-6.57,1.54-13.17a9.72,9.72,0,0,0,4.07,4.2,27.68,27.68,0,0,0-3.29-14.06,9.24,9.24,0,0,0,3.1,1.56,10.64,10.64,0,0,0-4-8.85,29,29,0,0,1-2.49,6.35,6.85,6.85,0,0,0-2.11-3.15c-1,2.31-1.91,4.61-2.86,6.91l-2.61-3.11a9.22,9.22,0,0,1-4.18,5.81,3.68,3.68,0,0,0-1.46-3.66,5.66,5.66,0,0,1-2.66,3.22,11.05,11.05,0,0,0-2-5.35c-1.29,2.42-2.6,4.82-3.85,7.26,3.31,1.59,3.5,2.2,2.74,6.49C206.46,162.35,209.46,159.61,209.51,160.23Z" transform="translate(-6.75 -6.75)"></path> <path class="cls-10" d="M125.09,75.57l.06,4.14A22.94,22.94,0,0,0,113,73.56l.15,2.51L101,71.71c.14-.3.6.11.45.4s-.53.32-.84.32a56.87,56.87,0,0,0-9.57.71,33.52,33.52,0,0,1,11,6l0-1.66c2.47.14,4.68,1.6,6.77,3a21.5,21.5,0,0,1,4.71,3.91,23.43,23.43,0,0,1,3.45,7.06,8.07,8.07,0,0,1,1.8-3.93q1.14,2.56,2.29,5.15a1,1,0,0,0,.31.45c.66.42.91-.9,1-1.72a2.27,2.27,0,0,1,2.23-2,2.3,2.3,0,0,1,2,2.26c1.57-2.14,5.76-7.26,5.48-10.15C131.93,78.33,125.11,77.19,125.09,75.57Z" transform="translate(-6.75 -6.75)"></path> <path class="cls-10" d="M251.26,74.5a8.71,8.71,0,0,1-2.62,2.58C253.8,78.14,259.12,72.81,264,75c-3.21,2.4-7.21,3.11-11,4.17s-7.75,2.73-9.84,6.27c.88.42,1.87-.13,2.83-.22s2.15,1,1.54,1.77a1.53,1.53,0,0,1-.55.39l-10,5.07a2.54,2.54,0,0,1-.75.29c-1,.14-1.8-1.06-1.74-2.14a5.72,5.72,0,0,1,1.31-2.87,8.3,8.3,0,0,1-3.13,2c-4,1.37-.74-4.82-.3-6.25-3,1.82-2.44-.68-1.57-2.42a11.62,11.62,0,0,1,7-5.32c-.44,1.36-1.11,2.65-1.57,4a60,60,0,0,1,7.57-3.44C244.82,75.84,250.75,75.28,251.26,74.5Z" transform="translate(-6.75 -6.75)"></path> <g id="Right_Eye" data-name="Right Eye"> <path class="cls-11" d="M212.35,134.36a3.87,3.87,0,0,1,3.08.1c1.43.84,1.76,2.88,1.67,4.63a10.64,10.64,0,0,1-1.37,5,5.23,5.23,0,0,1-4,2.62,7.09,7.09,0,0,1-2.8-.66,5.12,5.12,0,0,1-2.51-1.8c-1-1.53-.63-4.28.38-5.73A10.89,10.89,0,0,1,212.35,134.36Z" transform="translate(-6.75 -6.75)"></path> <path class="cls-12" d="M211.3,135.94a4.69,4.69,0,0,1,4,.25,2.09,2.09,0,0,1,.88.84,2.5,2.5,0,0,1,.21,1.09,9.14,9.14,0,0,1-.12,2.09,5.78,5.78,0,0,1-3.54,4.27c-1.92.69-5.66,0-6.24-2.52C206,139.62,209.54,136.65,211.3,135.94Z" transform="translate(-6.75 -6.75)"></path> <path class="cls-13" d="M211,142.65a.23.23,0,0,0,.2,0c.05,0,.08-.08.11-.14a4.42,4.42,0,0,0,.48-1.42,5,5,0,0,0-.12-2.31,1.11,1.11,0,0,0-.26-.52c-.81-.86-1.48.6-1.47,1.26C210,140.4,210.2,142.26,211,142.65Z" transform="translate(-6.75 -6.75)"></path> <path class="cls-14" d="M210.85,139.24a2.32,2.32,0,0,0,1.08,0,3.47,3.47,0,0,0,1.28-.47,1.26,1.26,0,0,0,.66-1.31,1.17,1.17,0,0,0-.74-.7,2.75,2.75,0,0,0-2.83.44A1.26,1.26,0,0,0,210.85,139.24Z" transform="translate(-6.75 -6.75)"></path> </g> <g id="Left_Eye" data-name="Left Eye"> <path class="cls-11" d="M149.28,134.36a3.87,3.87,0,0,0-3.08.1c-1.43.84-1.76,2.88-1.67,4.63a10.64,10.64,0,0,0,1.37,5,5.23,5.23,0,0,0,4,2.62,7.09,7.09,0,0,0,2.8-.66,5.12,5.12,0,0,0,2.51-1.8c1-1.53.63-4.28-.38-5.73A10.89,10.89,0,0,0,149.28,134.36Z" transform="translate(-6.75 -6.75)"></path> <path class="cls-12" d="M150.31,135.93a4.72,4.72,0,0,0-4.05.28,2.12,2.12,0,0,0-.88.85,2.64,2.64,0,0,0-.2,1.09,9.75,9.75,0,0,0,.13,2.09,5.78,5.78,0,0,0,3.56,4.24c1.93.69,5.66,0,6.23-2.55C155.62,139.59,152.07,136.64,150.31,135.93Z" transform="translate(-6.75 -6.75)"></path> <path class="cls-13" d="M150.61,142.65a.23.23,0,0,1-.2,0s-.08-.08-.11-.14a4.69,4.69,0,0,1-.49-1.42,5.31,5.31,0,0,1,.12-2.31,1.23,1.23,0,0,1,.27-.52c.81-.86,1.48.6,1.47,1.26C151.66,140.4,151.43,142.26,150.61,142.65Z" transform="translate(-6.75 -6.75)"></path> <path class="cls-14" d="M150.78,139.24a2.32,2.32,0,0,1-1.08,0,3.47,3.47,0,0,1-1.28-.47,1.26,1.26,0,0,1-.66-1.31,1.17,1.17,0,0,1,.74-.7,2.75,2.75,0,0,1,2.83.44A1.26,1.26,0,0,1,150.78,139.24Z" transform="translate(-6.75 -6.75)"></path> </g> <g id="Nose"> <path class="cls-15" d="M196.85,169.77c-.07-1.47-.23-3-.35-4.42,0-.2,0-.4,0-.6a.25.25,0,0,1,0-.09c0-.32,0-.65,0-1,0,0,0-.05,0-.07,0-.35,0-.7,0-1.05s0-.73,0-1.1c0-1.24,0-2.48,0-3.74,0-1.62,0-3.25,0-4.87v-.06c0-.72-.05-1.43-.1-2.14,0-.22,0-.45-.05-.67,0-.4-.07-.79-.12-1.19s-.12-.94-.2-1.41-.12-.68-.19-1-.2-.88-.31-1.32a18.13,18.13,0,0,0-3.81-7.33,12.69,12.69,0,0,0-10.75-4.13,12.68,12.68,0,0,0-10.74,4.13,18.13,18.13,0,0,0-3.81,7.33c-.11.44-.22.88-.31,1.32s-.13.68-.19,1-.14.94-.2,1.41-.09.79-.12,1.19c0,.22,0,.45-.05.67,0,.71-.09,1.42-.1,2.14v.06c0,1.62,0,3.25,0,4.87,0,1.26,0,2.5,0,3.74,0,.37,0,.74,0,1.1s0,.7,0,1.05c0,0,0,0,0,.07,0,.33,0,.66,0,1a.25.25,0,0,1,0,.09c0,.2,0,.4,0,.6-.12,1.47-.28,3-.35,4.42,0,.53,0,1,0,1.57,0,.29,0,.59,0,.88s0,.45,0,.67v0c0,.51.1,1,.18,1.51,0,.18.06.37.1.55s.08.36.12.55.1.4.16.6.11.32.16.48l.12.33.08.18c0,.12.09.23.14.34a12,12,0,0,0,.6,1.12,2.92,2.92,0,0,0,.24.37,2.14,2.14,0,0,0,.13.19l.28.38,0,0a4.71,4.71,0,0,0,.35.41c.15.17.31.34.48.5s.21.19.32.28.27.22.4.31a7,7,0,0,0,.82.51l.43.2h0l.37.14.08,0a5.31,5.31,0,0,0,.81.19h0a3,3,0,0,0,.43,0H172l.46,0,.2,0,.2,0,.36,0,.14,0a3.59,3.59,0,0,0,.47-.12l.07,0,.34-.1h0l.64-.23.18-.07.48-.19c.3-.11.59-.24.89-.36a11.78,11.78,0,0,1,3.83-1.09h1.15a11.78,11.78,0,0,1,3.83,1.09c.3.12.59.25.89.36l.48.19.18.07.64.23h0l.34.1.07,0a3.59,3.59,0,0,0,.47.12l.14,0,.36,0,.2,0,.2,0,.46,0H190a3.13,3.13,0,0,0,.43,0h0a5.31,5.31,0,0,0,.81-.19l.08,0,.37-.14h0l.43-.2a7,7,0,0,0,.82-.51c.13-.09.27-.2.4-.31l.32-.28c.17-.16.33-.33.48-.5a4.71,4.71,0,0,0,.35-.41l0,0,.28-.38a2.14,2.14,0,0,0,.13-.19,2.92,2.92,0,0,0,.24-.37,12,12,0,0,0,.6-1.12c.05-.11.09-.22.14-.34L196,177l.12-.33c0-.16.11-.32.16-.48s.11-.4.16-.6.09-.37.12-.55.07-.37.1-.55c.08-.5.14-1,.18-1.51v0c0-.22,0-.45,0-.67s0-.59,0-.88C196.89,170.82,196.87,170.3,196.85,169.77Z" transform="translate(-6.75 -6.75)"></path> <path class="cls-16" d="M196.85,169.77c-.07-1.47-.23-3-.35-4.42,0-.2,0-.4,0-.6a.25.25,0,0,1,0-.09c0-.32,0-.65,0-1,0,0,0-.05,0-.07,0-.35,0-.7,0-1.05s0-.73,0-1.1c0-1.24,0-2.48,0-3.74,0-1.62,0-3.25,0-4.87v-.06c0-.72-.05-1.43-.1-2.14,0-.22,0-.45-.05-.67,0-.4-.07-.79-.12-1.19s-.12-.94-.2-1.41-.12-.68-.19-1-.2-.88-.31-1.32a34.84,34.84,0,0,1-3.4,15.13,12.42,12.42,0,0,1-5.71,5.87,9.82,9.82,0,0,1-5.45.59,9.8,9.8,0,0,1-5.44-.59,12.42,12.42,0,0,1-5.71-5.87,34.84,34.84,0,0,1-3.4-15.13c-.11.44-.22.88-.31,1.32s-.13.68-.19,1-.14.94-.2,1.41-.09.79-.12,1.19c0,.22,0,.45-.05.67,0,.71-.09,1.42-.1,2.14v.06c0,1.62,0,3.25,0,4.87,0,1.26,0,2.5,0,3.74,0,.37,0,.74,0,1.1s0,.7,0,1.05c0,0,0,0,0,.07,0,.33,0,.66,0,1a.25.25,0,0,1,0,.09c0,.2,0,.4,0,.6-.12,1.47-.28,3-.35,4.42,0,.53,0,1,0,1.57,0,.29,0,.59,0,.88s0,.45,0,.67v0c0,.51.1,1,.18,1.51,0,.18.06.37.1.55s.08.36.12.55.1.4.16.6.11.32.16.48l.12.33.08.18c0,.12.09.23.14.34a12,12,0,0,0,.6,1.12,2.92,2.92,0,0,0,.24.37,2.14,2.14,0,0,0,.13.19l.28.38,0,0a4.71,4.71,0,0,0,.35.41c.15.17.31.34.48.5s.21.19.32.28.27.22.4.31a7,7,0,0,0,.82.51l.43.2h0l.37.14.08,0a5.31,5.31,0,0,0,.81.19h0a3,3,0,0,0,.43,0H172l.46,0,.2,0,.2,0,.36,0,.14,0a3.59,3.59,0,0,0,.47-.12l.07,0,.34-.1h0l.64-.23.18-.07.48-.19c.3-.11.59-.24.89-.36a11.78,11.78,0,0,1,3.83-1.09h1.15a11.78,11.78,0,0,1,3.83,1.09c.3.12.59.25.89.36l.48.19.18.07.64.23h0l.34.1.07,0a3.59,3.59,0,0,0,.47.12l.14,0,.36,0,.2,0,.2,0,.46,0H190a3.13,3.13,0,0,0,.43,0h0a5.31,5.31,0,0,0,.81-.19l.08,0,.37-.14h0l.43-.2a7,7,0,0,0,.82-.51c.13-.09.27-.2.4-.31l.32-.28c.17-.16.33-.33.48-.5a4.71,4.71,0,0,0,.35-.41l0,0,.28-.38a2.14,2.14,0,0,0,.13-.19,2.92,2.92,0,0,0,.24-.37,12,12,0,0,0,.6-1.12c.05-.11.09-.22.14-.34L196,177l.12-.33c0-.16.11-.32.16-.48s.11-.4.16-.6.09-.37.12-.55.07-.37.1-.55c.08-.5.14-1,.18-1.51v0c0-.22,0-.45,0-.67s0-.59,0-.88C196.89,170.82,196.87,170.3,196.85,169.77Z" transform="translate(-6.75 -6.75)"></path> <path class="cls-17" d="M196.85,169.77c-.07-1.47-.23-3-.35-4.42,0-.2,0-.4,0-.6-2-.09-4.2,1-6.06,2.12l-7.15,4.24a4.46,4.46,0,0,1-1.83.74,2.54,2.54,0,0,1-.61,0,2.43,2.43,0,0,1-.6,0,4.46,4.46,0,0,1-1.83-.74l-7.15-4.24c-1.86-1.1-4-2.21-6.06-2.12,0,.2,0,.4,0,.6-.12,1.47-.28,3-.35,4.42,0,.53,0,1,0,1.57,0,.29,0,.59,0,.88s0,.45,0,.67v0c0,.51.1,1,.18,1.51,0,.18.06.37.1.55s.08.36.12.55.1.4.16.6.11.32.16.48l.12.33.08.18c0,.12.09.23.14.34a12,12,0,0,0,.6,1.12,2.92,2.92,0,0,0,.24.37,2.14,2.14,0,0,0,.13.19l.28.38,0,0a4.71,4.71,0,0,0,.35.41c.15.17.31.34.48.5s.21.19.32.28.27.22.4.31a7,7,0,0,0,.82.51l.43.2h0l.37.14.08,0a5.31,5.31,0,0,0,.81.19h0a3,3,0,0,0,.43,0H172l.46,0,.2,0,.2,0,.36,0,.14,0a3.59,3.59,0,0,0,.47-.12l.07,0,.34-.1h0l.64-.23.18-.07.48-.19c.3-.11.59-.24.89-.36a11.78,11.78,0,0,1,3.83-1.09h1.15a11.78,11.78,0,0,1,3.83,1.09c.3.12.59.25.89.36l.48.19.18.07.64.23h0l.34.1.07,0a3.59,3.59,0,0,0,.47.12l.14,0,.36,0,.2,0,.2,0,.46,0H190a3.13,3.13,0,0,0,.43,0h0a5.31,5.31,0,0,0,.81-.19l.08,0,.37-.14h0l.43-.2a7,7,0,0,0,.82-.51c.13-.09.27-.2.4-.31l.32-.28c.17-.16.33-.33.48-.5a4.71,4.71,0,0,0,.35-.41l0,0,.28-.38a2.14,2.14,0,0,0,.13-.19,2.92,2.92,0,0,0,.24-.37,12,12,0,0,0,.6-1.12c.05-.11.09-.22.14-.34L196,177l.12-.33c0-.16.11-.32.16-.48s.11-.4.16-.6.09-.37.12-.55.07-.37.1-.55c.08-.5.14-1,.18-1.51v0c0-.22,0-.45,0-.67s0-.59,0-.88C196.89,170.82,196.87,170.3,196.85,169.77Z" transform="translate(-6.75 -6.75)"></path> <path class="cls-18" d="M196.44,175.54c-.8,3.31-3.27,6.44-6.45,6.62a11,11,0,0,1-4.77-1.23,3.11,3.11,0,0,0,.11-.68c0-.71-.12-1.42-.13-2.12,0-2.31,1.51-4.3,3.22-5.7a12.43,12.43,0,0,1,5.62-2.74,6.65,6.65,0,0,1,2.81.08A19.9,19.9,0,0,1,196.44,175.54Z" transform="translate(-6.75 -6.75)"></path> <path class="cls-19" d="M196.66,174.44a10.7,10.7,0,0,1-.22,1.1c-.8,3.31-3.27,6.44-6.45,6.62a8.88,8.88,0,0,1-3.88-.87c1.59-3.34,4.2-6.51,7.84-7A6.21,6.21,0,0,1,196.66,174.44Z" transform="translate(-6.75 -6.75)"></path> <path class="cls-18" d="M165.19,175.54c.8,3.31,3.27,6.44,6.45,6.62a11,11,0,0,0,4.77-1.23,3.11,3.11,0,0,1-.11-.68c0-.71.12-1.42.13-2.12,0-2.31-1.51-4.3-3.22-5.7a12.43,12.43,0,0,0-5.62-2.74,6.65,6.65,0,0,0-2.81.08A19.9,19.9,0,0,0,165.19,175.54Z" transform="translate(-6.75 -6.75)"></path> <path class="cls-19" d="M165,174.44a10.7,10.7,0,0,0,.22,1.1c.8,3.31,3.27,6.44,6.45,6.62a8.88,8.88,0,0,0,3.88-.87c-1.59-3.34-4.2-6.51-7.84-7A6.21,6.21,0,0,0,165,174.44Z" transform="translate(-6.75 -6.75)"></path> <path class="cls-20" d="M186.92,139.17a6.32,6.32,0,0,0-5.08-2.22,9.25,9.25,0,0,0-1,.11,8.83,8.83,0,0,0-1-.11,6.32,6.32,0,0,0-5.08,2.22,18.34,18.34,0,0,0-3.54,13.61c.27,2.31.9,4.74,2.54,6.28a6.83,6.83,0,0,0,3.14,1.6,8.82,8.82,0,0,0,4,0,8.87,8.87,0,0,0,4,0,6.83,6.83,0,0,0,3.14-1.6c1.64-1.54,2.27-4,2.54-6.28A18.34,18.34,0,0,0,186.92,139.17Z" transform="translate(-6.75 -6.75)"></path> </g> </g> <path class="cls-21" d="M151.09,266.77a3,3,0,0,0,1.22-.62,12.33,12.33,0,0,0,1.44-1.32c.48-.52.94-1.05,1.39-1.59s.88-1.06,1.27-1.52a7.86,7.86,0,0,1-1.65-3,6,6,0,0,1-.08-3.17,7.48,7.48,0,0,1,1.56-3,10.06,10.06,0,0,1,3.38-2.52l-.42,0c-.45-.1-.87-.19-1.27-.26a1.43,1.43,0,0,1-.84-.38,5.59,5.59,0,0,0-2.75,1.77,19.35,19.35,0,0,0-2.58,3.46,24.86,24.86,0,0,0-2,4.17,19.33,19.33,0,0,0-1.06,4,5.1,5.1,0,0,0,.3,3,1.8,1.8,0,0,0,2.07.92m99-25.88a20.44,20.44,0,0,0-3.21,3.94,21.27,21.27,0,0,0-1.78,3.6,7,7,0,0,0-.5,2.82,2.19,2.19,0,0,0,.59,1.6c.22.26.7.11,1.44-.43a23,23,0,0,0,2.57-2.33c1-1,2.07-2.19,3.26-3.54s2.32-2.76,3.42-4.18,2.14-2.81,3.13-4.15,1.82-2.47,2.49-3.41c.51-.84.41-1.35-.29-1.52a3,3,0,0,0-2.08.24,24,24,0,0,0-3.76,2.42,41,41,0,0,0-5.28,4.94m22.22,3.49c3.66-5.38,16.45-23,24.75-12.32,10,12.82-11.29,28.05-22.75,32-16.36,5.69-74.77,8.68-96.16,11.3-35.79,4.39-62,9.07-95.16,23.85,32.67-21.45,80-27.22,118.24-31.81,17.33-2.09,46.81-3.76,62.53-7.37,29.63-6.8,33.58-30.11,23.3-21.43-7.83,6.61-10.28,16.24-23.95,18a9.12,9.12,0,0,1-4.86-.52,3,3,0,0,1-2.07-2.85c-1,.86-2.05,1.74-3.26,2.63a29.6,29.6,0,0,1-3.8,2.4,25.9,25.9,0,0,1-4.14,1.74,13.6,13.6,0,0,1-4.27.65,11,11,0,0,1-6.17-1.76,6.67,6.67,0,0,1-1.56-1.58,24.39,24.39,0,0,1-2.62,2.44,20.6,20.6,0,0,1-3.85,2.43,15,15,0,0,1-4.73,1.39c-2.93.1-5.12-.43-6.55-1.59a7.81,7.81,0,0,1-2.33-3l-.25.24a21,21,0,0,1-3.13,2.49,20.45,20.45,0,0,1-3.63,1.89,17.49,17.49,0,0,1-4.23,1.08,9.22,9.22,0,0,1-4.86-.53,3,3,0,0,1-2.07-2.84c-1,.86-2,1.73-3.25,2.62a29,29,0,0,1-3.81,2.4,24.32,24.32,0,0,1-4.14,1.74,13.55,13.55,0,0,1-4.27.65,11,11,0,0,1-6.17-1.76,6.43,6.43,0,0,1-2-2.37c-.48.22-1,.42-1.48.6a12.28,12.28,0,0,1-6.47.52,26.18,26.18,0,0,1-3.89,3.41,30.43,30.43,0,0,1-4.9,2.94A24.8,24.8,0,0,1,149,274a13.51,13.51,0,0,1-5.32.14h.08a10.94,10.94,0,0,1-6-2.3,6.89,6.89,0,0,1-2-3.17c-.43.42-.86.83-1.3,1.22a41.42,41.42,0,0,1-9.09,6.34,19.76,19.76,0,0,1-8.83,2.35,16.33,16.33,0,0,1-5.33-.92,28.9,28.9,0,0,1-5-2.31,26.2,26.2,0,0,1-4.39-3.18,23.64,23.64,0,0,1-3.34-3.63c-.51,2.23-.94,4.2-1.31,5.89s-.68,3.27-.93,4.71l-.72,4.13c-.22,1.32-.45,2.7-.67,4.16a62.55,62.55,0,0,1-8.12-.31,12,12,0,0,1-4.39-1.22,3.59,3.59,0,0,1-1.78-2.22,14.56,14.56,0,0,1-.34-3.38,26,26,0,0,1,1-5.88,64.43,64.43,0,0,1,2.49-7.18q1.56-3.81,3.72-7.92T92,251.15q2.42-4.08,5-7.94t5.24-7.2a90.75,90.75,0,0,0-11.58,3.91,55.64,55.64,0,0,0-9.25,4.82,30.14,30.14,0,0,0-6.34,5.42,10.8,10.8,0,0,0-2.75,5.68c-1.18.16-2.29.3-3.33.41s-2,.19-2.75.21a16.12,16.12,0,0,1-4.06-.47,6.12,6.12,0,0,1-2.79-1.5,3.94,3.94,0,0,1-1.1-2.61,8.83,8.83,0,0,1,.93-3.85c.91-1.92,2.75-3.89,5.54-5.93a59.49,59.49,0,0,1,10.06-5.79,112.29,112.29,0,0,1,12.89-5,117.39,117.39,0,0,1,14-3.62A87.5,87.5,0,0,1,115,226.13a35.68,35.68,0,0,1,10.9,1.08,24.75,24.75,0,0,0-2.54,2.72q-1.35,1.63-2.74,3.69t-2.84,4.47q-1.43,2.43-2.78,5,7.52-5.56,14.58-10.29t13.14-8l-.17.09a12.23,12.23,0,0,1,4.65-1.5,22.28,22.28,0,0,1,5-.05,28,28,0,0,1,4.77.9,21.54,21.54,0,0,1,3.8,1.42c-2.25,1.12-4.73,2.44-7.43,4s-5.52,3.18-8.45,4.93S139,238.11,136,240s-6,3.83-8.88,5.72-5.66,3.74-8.28,5.55-5,3.5-7.14,5a20.05,20.05,0,0,1,1.69,3.36,42,42,0,0,0,1.94,4.08,20.14,20.14,0,0,0,2.5,3.62,5.71,5.71,0,0,0,3.42,1.93,6.1,6.1,0,0,0,3.55-.77,30.24,30.24,0,0,0,4.56-2.77c1.64-1.17,3.34-2.51,5.12-4,1-.81,1.92-1.63,2.85-2.44a28.68,28.68,0,0,1,1.63-3.16,34.05,34.05,0,0,1,2.41-3.56,43.65,43.65,0,0,1,4.77-4.88,29.56,29.56,0,0,1,4.48-3.21,20.58,20.58,0,0,1,4.14-1.86,22.62,22.62,0,0,1,3.76-.87,14.51,14.51,0,0,1,7,.56,4.78,4.78,0,0,1,3.33,4c1.53.21,2.46.83,2.79,1.87a6.38,6.38,0,0,1,0,3.51,15.18,15.18,0,0,1-1.57,3.9,17.11,17.11,0,0,1-2,3,1,1,0,0,0,1.23.08,4.68,4.68,0,0,0,1-.74c.51-.55,1-1.17,1.56-1.85l.11-.13a35.93,35.93,0,0,1,5.09-8.08,36.3,36.3,0,0,1,4.82-4.91,31.53,31.53,0,0,1,4.82-3.36,23.74,23.74,0,0,1,8.53-2.92,24.84,24.84,0,0,1,3-.19,15.68,15.68,0,0,1,3.13.3,7.22,7.22,0,0,1,2.49.92,2.38,2.38,0,0,1,1.19,1.71,6,6,0,0,1,3.13.63,4.54,4.54,0,0,1,1.86,1.47,50.65,50.65,0,0,0-2.79,6,21.36,21.36,0,0,0-1.36,5.2,5.41,5.41,0,0,0,.13,2.82.81.81,0,0,0,1.1.38,5.8,5.8,0,0,0,1.69-1.2c.65-.62,1.25-1.25,1.82-1.89s1.12-1.27,1.69-2l.54-.7a24.79,24.79,0,0,1,1.4-4.08q2.79-5.38,5.41-10.22t5.07-8.89q2.46-4.06,4.56-7.24t3.89-5.37a7.05,7.05,0,0,1,2.71-1.06,39.07,39.07,0,0,1,4.69-.89,35.27,35.27,0,0,1,4.6-.33c1.41,0,2.23.2,2.46.62a12.31,12.31,0,0,1-1,2.09q-.76,1.32-1.86,3.06t-2.45,3.78q-1.35,2-2.87,4.26A217.91,217.91,0,0,0,226,249.33a10.46,10.46,0,0,0-1,2.55,4,4,0,0,0-.08,2.12c.17.51.56.7,1.18.58a7.53,7.53,0,0,0,2.88-2.09c.67-.7,1.42-1.5,2.24-2.4s1.59-1.82,2.32-2.75l.4-.52a39,39,0,0,1,4.59-7,35.68,35.68,0,0,1,4.81-4.91,32,32,0,0,1,4.82-3.36,24.5,24.5,0,0,1,4.52-2,21.33,21.33,0,0,1,7-1.11,16.55,16.55,0,0,1,3.13.29,7.6,7.6,0,0,1,2.49.93,2.37,2.37,0,0,1,1.18,1.71,5.94,5.94,0,0,1,3.13.63,4.25,4.25,0,0,1,1.86,1.47,50.65,50.65,0,0,0-2.79,6.05,21.69,21.69,0,0,0-1.35,5.19,5.34,5.34,0,0,0,.13,2.83.8.8,0,0,0,1.09.38,5.68,5.68,0,0,0,1.69-1.2c.65-.62,1.26-1.25,1.82-1.89l.17-.18a1.82,1.82,0,0,1,.16-.31M188.7,249a19.86,19.86,0,0,0-3.22,3.94,20.74,20.74,0,0,0-1.77,3.59,7.22,7.22,0,0,0-.51,2.82,2.28,2.28,0,0,0,.59,1.6c.23.26.71.12,1.44-.43a22.84,22.84,0,0,0,2.58-2.33c1-1,2.07-2.18,3.25-3.54s2.33-2.75,3.43-4.18,2.14-2.81,3.12-4.15,1.82-2.47,2.5-3.41c.5-.84.4-1.35-.3-1.52a3,3,0,0,0-2.07.24A23.53,23.53,0,0,0,194,244,40.49,40.49,0,0,0,188.7,249" transform="translate(-6.75 -6.75)"></path> <path id="SVGID" class="cls-22" d="M195.64,301.18h0m0,0h0Zm.34-.33h0m-.34.28a.08.08,0,0,1,0,0l.33-.32,0,0-.32.3m.32-.3,0,0v0h0m0,0c.08,0,.09,0,0-.06Zm-1.78.84a.27.27,0,0,1,.37.09l.3.58a.21.21,0,0,1-.07.25c0,.05-.07.07-.11.07a2.27,2.27,0,0,1-1.11-.37h0a1.51,1.51,0,0,1-.09-.31c.09,0,.32-.12.69-.29m-.8-.16s0,0,.07-.06v.49c-.21-.12-.24-.26-.07-.43m.36-1.2v0Zm4,.26a.21.21,0,0,1-.07-.33.76.76,0,0,1,.46-.41,5.67,5.67,0,0,1,0,.62.3.3,0,0,1-.07.11.24.24,0,0,1-.18.07.38.38,0,0,1-.18-.06m-2-.83h0m-2.46-.74h0m3,.9a.25.25,0,0,0,.07-.25l-.07-.17c0-.09,0-.15-.06-.2a1.18,1.18,0,0,1,0-.53.52.52,0,0,1,.08-.11.1.1,0,0,1,.12,0,2.73,2.73,0,0,0,.42.41,2.17,2.17,0,0,1,.41.44.55.55,0,0,1,.05.25.21.21,0,0,1-.05.12,9.74,9.74,0,0,0-.49,1.08,1.39,1.39,0,0,1-.8.85.2.2,0,0,1-.2,0,.16.16,0,0,1-.12-.14s0-.2,0-.53l0,0h0l0,0,0,0a3.73,3.73,0,0,1-.14-.44.89.89,0,0,1,0-.62s.07-.13.18-.31l.34.18.09,0a.21.21,0,0,0,.14-.08m-.39-2.11c0,.06,0,.09-.07.09l-.2,0q.28-.19.27-.06m-1.83.92.23-.46c0-.05.26-.27.64-.63a.25.25,0,0,1,.37,0l.28.23h0c.07.26.14.5.21.74a1.47,1.47,0,0,1,0,.66s0,.18-.09.5a1.74,1.74,0,0,0-.63.4.24.24,0,0,1-.36,0,3.62,3.62,0,0,0-1.63-.44c-.06,0-.1,0-.14-.12a.21.21,0,0,1,0-.2.37.37,0,0,1,.07-.1.35.35,0,0,1,.09-.11,1.21,1.21,0,0,1,.13-.21h.21l.08.08a.36.36,0,0,0,.46.07q.19-.11,0-.42h0m1.26-2.76-.46.29a5.82,5.82,0,0,1-2.07.94,2.54,2.54,0,0,0-.51.17.5.5,0,0,0-.29.43c0,.2,0,.42,0,.67v4.46c0,.13,0,.36,0,.67a.47.47,0,0,0,.55.47,5.68,5.68,0,0,0,.82,0c1-.22,1.65-.37,1.84-.43a12,12,0,0,0,4.55-2.53,2.28,2.28,0,0,0,.28-.3.26.26,0,0,0,0-.37c-.2-.25-.32-.39-.34-.43L196,296.23l-.32-.25a.32.32,0,0,0-.21-.09.33.33,0,0,0-.16.05M183,293.41h0m11.1-9.49h0m-6.21,16.87,0-.07.08,0,0,.1-.09,0m1-.35a.19.19,0,0,1-.08-.18.2.2,0,0,1,.18-.16q.15,0,.18.15a.19.19,0,0,1-.11.21H189a.19.19,0,0,1-.1,0m-3.42-1c.14,0,.19,0,.14.1s-.05.06-.11.07a.4.4,0,0,1-.36-.06l.33-.11m.28-.61.05-.07,0,.09Zm3.54-.25c0-.11,0-.13.13-.05l0,.09Zm-4.32-.47c.1,0,.14.07.14.17a.28.28,0,0,1,0,.13.16.16,0,0,1-.21.05.2.2,0,1,1,.1-.35m-1.39-.43a2.82,2.82,0,0,1,1,.5h0a1.24,1.24,0,0,1-1-.5m2.06-1-.08.16-.06-.05.14-.11m-4-.43c-.06-.06-.06-.13,0-.23a1.57,1.57,0,0,1,.11-.17h.19l.09.07a.21.21,0,0,1,0,.23.24.24,0,0,1-.19.16h-.07a.17.17,0,0,1-.15-.08m2.45-1.52,0,0a.3.3,0,0,1,.32-.16l.05.09a.41.41,0,0,1-.32.16s0,0,0,0m-3.46-.23,0,0v0a.11.11,0,0,1,0-.06l.08,0v.09l-.06,0m1.44-.25,0,0,0,.05-.07.09,0-.11m-.66-.6.07.05-.09,0Zm2-.44a.15.15,0,0,1,.23,0,.28.28,0,0,1,0,.13.48.48,0,0,1-.24.44,1.12,1.12,0,0,1-.47.21l-.07,0-.66.09.3-.36a.85.85,0,0,1,.44-.28h0a2.27,2.27,0,0,1,.43-.28m-1.72-.34c0-.05,0-.08,0-.09s.14,0,.12.09l-.07.07c-.06,0-.09-.06-.09-.07m-.44-.67.1,0,0,.11Zm2.65,0a.18.18,0,0,1-.1-.17c.21,0,.28.06.21.14s0,.05-.06.05l0,0m-.17-.4,0-.08c0,.08,0,.16,0,.27a.22.22,0,0,1-.05-.19m.23-.22-.09.06h-.07a.16.16,0,0,1,.16-.07m-1.12-.32.06.06-.09,0Zm-1.43-1.27a.64.64,0,0,1-.27-.71,1.36,1.36,0,0,1,.07-.25.49.49,0,0,1,.41-.3V289a2.06,2.06,0,0,0,0,1l-.22-.09m1-1.31.08-.09s0,.12,0,.2-.09-.08-.05-.11m.09-.09Zm2.33-.05a.59.59,0,0,1-.19,0Zm-2.35-.07,0,.09h0Zm1.13,0a.19.19,0,0,1,0-.25l.1-.05h.15a1.67,1.67,0,0,1,.23.11l.38.31-.21.06a.63.63,0,0,1-.25.07.53.53,0,0,1-.42-.25m.2-1.26-.11,0h0Zm-1.69.07-.1-.05a1.06,1.06,0,0,1-.27-.05c-.18,0-.21-.14-.09-.32a.34.34,0,0,1,.34-.16.43.43,0,0,1,.37.34.27.27,0,0,1,0,.24.09.09,0,0,1-.09.07.23.23,0,0,1-.14-.07m1.51-.26a.32.32,0,0,1,.14-.37c0,.14,0,.32-.08.56l-.06-.19m2.85-.8c0-.1,0-.16.11-.16l.07.06c0,.1,0,.16-.11.16h0s0,0,0-.06m-3.7-.26.05-.06.07.15-.12-.09m2.11.21a.15.15,0,0,1-.15-.18.32.32,0,0,1,.08-.09.59.59,0,0,1,.47-.07.17.17,0,0,1,.15.2c0,.05,0,.08-.08.09l-.23.09-.24,0m3-1.1a.09.09,0,0,1,.1,0c.08.06.08.13,0,.2h-.1c-.09-.07-.09-.14,0-.2m-3.26.11.07-.09,0,0,.21-.11a.27.27,0,0,1,.25,0c.06,0,.06.06,0,.12a.26.26,0,0,1-.19.14,1.06,1.06,0,0,1-.27,0Zm-1.74-.36,0,0v.05l.18.18-.09,0Zm.11-.49.12-.07c.1-.06.17-.05.22,0s0,.07-.06.09h-.14l-.2,0,.06,0m2.6-.41.09,0,0,.08-.09,0Zm1.28-.58a1.12,1.12,0,0,0,0-.13c.06-.09.12-.11.2-.05s0,.06,0,.11l-.09.07-.2.07,0-.07m1.48-.48,0,.07c-.05,0,0-.07,0-.07m-2.1-.73.05-.09c.1,0,.15,0,.18.09a.08.08,0,0,1-.06.09l-.14.05,0-.14m1.94-.17h.08l0,.07Zm.94-.44,0,.05c-.06,0,0,0,0-.05m-1.86-.1h.11l0,.09Zm1.44-.71,0-.05,0,.09Zm1.56-1.52c-.92.15-1.5.25-1.72.3a12.52,12.52,0,0,0-6.64,4.13,12.68,12.68,0,0,0-2.89,6.85c0,.12,0,.26,0,.41a15.25,15.25,0,0,0,.17,2.94A12.59,12.59,0,0,0,189.49,304a3.25,3.25,0,0,0,1.2,0,.36.36,0,0,0,.27-.27,3.67,3.67,0,0,0,.07-.79v-4.59c0-.15,0-.29,0-.41a2.11,2.11,0,0,0,0-.26.47.47,0,0,0-.33-.39,2.48,2.48,0,0,0-.52-.14,5.63,5.63,0,0,1-2.48-1.33,5.54,5.54,0,0,1-1.84-4.06c0-.2,0-.37,0-.53a5.52,5.52,0,0,1,.25-1.45,5.67,5.67,0,0,1,3.58-3.59l1-.34a.43.43,0,0,0,.3-.41,4.55,4.55,0,0,0,0-.67v-4.85s0-.21-.07-.53a.28.28,0,0,0-.29-.25,2.23,2.23,0,0,0-.36,0h0m3.28,4.77.5.05s0,0,0,0v0h0l-.09.44a1.67,1.67,0,0,1-.41-.49m1.34-.65h0s0,0,0,0m1.89.17a.18.18,0,0,1-.07-.11.12.12,0,0,1,.06-.12v0l.18-.1v.22c0,.1,0,.15-.1.15l-.08,0M197,283l0,0c.05.06,0,.08-.08.08l0,0m-2.39-.15a.76.76,0,0,1,.23.33c-.06-.08-.14-.19-.23-.33m2-1a.31.31,0,0,1,.09-.25c.07-.1.14-.13.21-.11s.06,0,.09.07,0,.24-.16.32l-.12,0Zm-4.18-2.7a.37.37,0,0,0-.37.36,3.61,3.61,0,0,0-.07.51v3.1c0,1,0,1.62,0,1.88a3.31,3.31,0,0,0,.05.53.53.53,0,0,0,.23.32.47.47,0,0,0,.23.12,6.84,6.84,0,0,1,2.67,1.2.6.6,0,0,0,.25.11.34.34,0,0,0,.25,0,1.72,1.72,0,0,0,.42-.32c.67-.66,1.9-1.9,3.71-3.71a1.68,1.68,0,0,0,.31-.43.21.21,0,0,0,0-.25,2.06,2.06,0,0,0-.25-.32c-.38-.33-.69-.58-.94-.76a12.89,12.89,0,0,0-6.2-2.33h-.28" transform="translate(-6.75 -6.75)"></path> <path id="SVGID-2" data-name="SVGID" class="cls-23" d="M210.6,304.05h0m9.26-15.67h0M209.14,301c0-.13.06-.16.16-.09s0,.06,0,.11l-.11.05Zm1-1.47s0,0,0,0Zm-3.23-.23-.08,0h.08Zm-.17-.09,0,.07-.09-.06Zm2.14-.09,0,.06,0,.05Zm-4-.46a.08.08,0,0,1,0-.12c.09-.07.16-.06.22,0s0,.11,0,.11a.15.15,0,0,1-.11.06s-.07,0-.1-.08m4-.46.05-.07,0,.09Zm-2.46-.23c0-.12,0-.16.14-.14s0,0,.07.07,0,.17-.07.19h-.05c-.06,0-.09,0-.09-.13m1.09-.53a.11.11,0,0,1,0-.05l.1,0a.36.36,0,0,0,0,.11h-.06l-.05,0a.1.1,0,0,1,0-.07m-3.27-1.68a.11.11,0,0,1,0-.11s0,0,.1,0a.49.49,0,0,1,0,.13c0,.06-.05.09-.08.09s0,0-.08-.09m1.11-.3h.09l-.05.09Zm-2.37.12c-.09,0-.14-.05-.14-.16s0-.15.16-.14.13.05.14.16,0,.14-.13.14h0m-1.1-.28a.39.39,0,0,1,0-.06l0,0,.09,0v.18l-.13-.12m2.13-1,0,.09a1.11,1.11,0,0,1-.09.16c0-.15,0-.24.06-.25m-2.64-.1a.31.31,0,0,0,0,.09l-.09,0a.13.13,0,0,1,.13-.11m.37-1.49a.41.41,0,0,1,0,.09h-.12l.08-.08Zm.58-1.08.06-.11.12.07h0l-.06.1Zm2.1-.57s.05-.07.08-.07l.14,0,0,.16-.07.09c-.11,0-.15-.05-.12-.16m-1.32-.25v0m1.14-1.29c0-.08,0-.12,0-.12a.15.15,0,0,1,.23,0,.21.21,0,0,1,0,.12.21.21,0,0,1-.18.18c-.11,0-.15-.06-.14-.18m-1.61-1.88a5,5,0,0,1,.17.49,1.13,1.13,0,0,1-.17-.49m-1.08-.24h.06l-.1.16a1.36,1.36,0,0,1,0-.17m.85,0s0-.08,0-.11.11,0,.16.23a.25.25,0,0,1-.19-.12m1.73-1.58.07,0-.07,0Zm-.76-.12c-.09,0-.12-.07-.09-.16s.05-.06.11-.06.13,0,.14.11a.12.12,0,0,1-.13.11h0m.64-.93a.07.07,0,0,1,.1,0l.06.09c0,.06-.06.09-.07.09s-.15-.05-.09-.15m2.14-1.57s0,.06-.06.07a.19.19,0,0,1,.06-.07m0-1.06.09,0,0,.09h-.09Zm4.24-3.07a17.12,17.12,0,0,0-2.24.46,12.27,12.27,0,0,0-6.44,4.45,13.6,13.6,0,0,0-2.59,7.38,6.92,6.92,0,0,0,.06,1c0,.09,0,.25.05.46a3.89,3.89,0,0,1,.05.48,8.58,8.58,0,0,0,.29,1.45,12.59,12.59,0,0,0,10,9.24,6.21,6.21,0,0,0,.93.07l.27,0a.38.38,0,0,0,.28-.27,1.27,1.27,0,0,0,.13-.51c0-1.31,0-3,0-5.14a2.57,2.57,0,0,0-.05-.39.59.59,0,0,0-.34-.4l-.37-.13a4.47,4.47,0,0,1-.9-.28,5.54,5.54,0,0,1-3-2.83,5.33,5.33,0,0,1-.3-4.17,5.58,5.58,0,0,1,3.61-3.71,4.55,4.55,0,0,1,.46-.14,3.25,3.25,0,0,0,.45-.15.56.56,0,0,0,.4-.49,6,6,0,0,0,.06-.82V280.7q0-.57,0-1a1.15,1.15,0,0,0-.11-.39.41.41,0,0,0-.3-.23l-.33,0h-.07m5.18,23h.09l-.05.09Zm-.67.16,0-.11c0-.06,0-.08.07-.07l.15,0s0,.05,0,.16a.23.23,0,0,1,0,.11l-.06,0c-.05,0-.08-.05-.1-.13m1.47-1-.07-.18.19.07v.11l-.07,0s0,0,0,0m-3.24-.61c0-.13,0-.17.12-.12s0,0,.07.11l-.08.07a.11.11,0,0,1-.11-.06m3.75-.26.09-.07h0l.07.07-.09.07Zm-3-.18c0-.11.09-.09.14,0a.84.84,0,0,1,.06.17l-.17-.11a.11.11,0,0,1,0-.1m1.4.53a.17.17,0,0,1-.06-.12,2,2,0,0,0,0-.25.25.25,0,0,1,.09-.23s.09,0,.14.05a.22.22,0,0,1,.09.2.87.87,0,0,1-.05.25c0,.08-.07.12-.13.12l-.06,0m2.65-.74-.09-.18q.3.17.18.21h0s0,0-.06,0m-3.34-.16.08,0V300Zm2.18-.39,0,.07c-.06,0,0,0,0-.07m1.83-.59a.15.15,0,0,1-.07-.1.2.2,0,0,1,.18-.18,1.34,1.34,0,0,1,.73.21.18.18,0,0,1,0,.11c0,.12,0,.18-.14.18h-.06a1,1,0,0,1-.67-.22m-2.79-.28c-.12,0-.16-.08-.11-.18a.28.28,0,0,1,.23-.07c.05,0,.08,0,.09.07a.11.11,0,0,1,0,.11.18.18,0,0,1-.15.08h-.06m3.91-.39,0-.1c.07,0,.1,0,.1,0s0,.12,0,.12a.17.17,0,0,1-.1-.05m-5.28-.12.4.3a.46.46,0,0,1-.4-.3m2.48.1A.18.18,0,0,1,217,298a1,1,0,0,1,.11-.23s.13-.14.32-.37c0,.31.05.47.05.48a.41.41,0,0,1-.18.32.22.22,0,0,1-.14.06l-.09,0m1-1.43,0,.11,0,0-.15.08c.08-.13.15-.2.22-.21m1,0,.29-.21a1.38,1.38,0,0,1-.12.36s0,.05-.1.05-.18-.09-.07-.2m1.06-.6h0v.09Zm.46-.19q.17,0,.18.12a.11.11,0,0,1,0,.11.23.23,0,0,1-.12,0l-.13,0-.3-.09.41-.17m1.15-.43.14-.11.07,0q0,.09,0,.09l-.18,0m1-1.15c.11-.05.15,0,.1.12h-.12c0-.07,0-.11,0-.12m-.78-.12a.09.09,0,0,1,0,.1c0,.11,0,.17-.14.18h-.25l-.37-.07h0l.54-.3a.18.18,0,0,1,.21.09m-1.69.55c-.06,0-.08-.08-.07-.11a1.09,1.09,0,0,1,.62-.92.15.15,0,0,1,.23.07.58.58,0,0,1,.09.25,3,3,0,0,1,0,.35.37.37,0,0,0-.53.05l-.08.11a.3.3,0,0,1-.07.11.45.45,0,0,1-.1.09h-.13m-.93-1.65c-.09,0-.13-.08-.13-.21v-.13c0-.16,0-.25,0-.26a.16.16,0,0,1,.19-.16c.11,0,.15.09.13.21l-.09.39c0,.11-.06.16-.11.16h0m2.63.09a.63.63,0,0,1-.58-.6v-.13q0-.18.12-.21c.11,0,.17,0,.2.12a.74.74,0,0,0,.44.59l.44.26-.62,0m-3.17-2.5h0v.09Zm4-.11.05.06-.15.07.1-.13m-3.72-.26a.85.85,0,0,1-.21.31c.06-.08.13-.18.21-.31m1.54.21c-.1,0-.15-.1-.12-.19s.07-.12.18-.09.14.08.12.17a.13.13,0,0,1-.14.11h0m-1.29-.34.15,0-.15,0m2.44-.33c0-.11.07-.16.16-.14s.09,0,.11.05,0,.18-.09.21h0c-.06,0-.11,0-.14-.13m-1.73-1.83c.07-.19.22-.24.44-.16s.18.16.12.34-.15.27-.28.23l-.12,0a1,1,0,0,0-.21-.12h0c0-.13,0-.21,0-.25m1.68-.21h0l-.06.07Zm.07-.07.09,0-.09,0Zm-4.12-.11a.21.21,0,0,1-.16-.19.2.2,0,0,1,.12-.2l.25-.05a.19.19,0,0,1,.23.05.23.23,0,0,1,0,.25l-.12.18h-.2Zm.86-1.45c-.07-.14,0-.21.25-.21l.14,0c.11,0,.16.08.14.17a.15.15,0,0,1-.17.15l-.14,0h0a.17.17,0,0,1-.18-.11m2.45,0a.12.12,0,0,1,0-.16c0-.08.11-.1.21-.07a.16.16,0,0,1,.11.18c0,.11-.08.16-.16.16a.17.17,0,0,1-.16-.11m-3.85-.23a.08.08,0,0,1,.09,0s0,0,0,.1a.23.23,0,0,1-.11,0l0-.11m-1,0a1.49,1.49,0,0,1,.07-.54,1.13,1.13,0,0,1,.12-.21,1.52,1.52,0,0,1,.77-.53.18.18,0,0,1,.21.12.5.5,0,0,1-.09.38.55.55,0,0,1-.19.17.81.81,0,0,0-.43.66c0,.08-.07.13-.18.16h-.08c-.12,0-.19-.08-.2-.22m-1.82-1.4a.2.2,0,0,1,.17.14h0l0,0a.23.23,0,0,1-.1-.19m5.13-.77.09,0,0,.11Zm-.72-.67,0,0-.14-.16,0-.1a.26.26,0,0,1,.23.09q.1.12,0,.21h0a.09.09,0,0,1-.06,0m-2.38-.46a.4.4,0,0,1,.45.13l.24.26v0a1.39,1.39,0,0,0,.06.13.42.42,0,0,1,0,.12c.06.11.06.19,0,.23s-.14.06-.25,0a.94.94,0,0,0-.23-.1.61.61,0,0,0-.39,0l-.55.21-.55.22a.13.13,0,0,1-.12,0,.16.16,0,0,1,0-.23,2,2,0,0,1,.83-.77h0l.48-.09m-.58-.14,0-.11a.44.44,0,0,1,.08.28l-.1-.17m-.25-1.08,0-.11c0-.13.09-.26.28-.4s.1,0,.12,0,.11.12,0,.21a2.42,2.42,0,0,1-.27.28.1.1,0,0,1-.09,0h0m-3.13-1.93q-.06.66-.06,1.08v4.18a4.87,4.87,0,0,0,.06.55.56.56,0,0,0,.4.49l.45.15a3.26,3.26,0,0,1,.46.12,5.64,5.64,0,0,1,3.38,3.08,4.93,4.93,0,0,1,.46,1.56,5.52,5.52,0,0,1-.21,2.51,5.77,5.77,0,0,1-1.49,2.39,5.62,5.62,0,0,1-2.43,1.4l-.26.06-.27.07a.61.61,0,0,0-.49.58c0,.45-.06.8-.06,1.06v1.76c0,1.38,0,2.19,0,2.44a3.93,3.93,0,0,0,.07.53.44.44,0,0,0,.44.43h.41a6.89,6.89,0,0,0,1.31-.23,12.32,12.32,0,0,0,7.33-4.72,11.55,11.55,0,0,0,2.11-4.49c0,.09.08-.53.32-1.85a5.18,5.18,0,0,0,.07-1.62,19.33,19.33,0,0,0-.43-2.79,12.35,12.35,0,0,0-3.38-5.74,12.5,12.5,0,0,0-7.42-3.51h-.19a.53.53,0,0,0-.6.52" transform="translate(-6.75 -6.75)"></path> <path id="SVGID-3" data-name="SVGID" class="cls-24" d="M237.23,304.05h0m9.26-15.67h0M235.78,301q0-.19.15-.09s0,.06,0,.11l-.1.05Zm1-1.47s0,0,0,0Zm-3.22-.23-.09,0h.09Zm-.18-.09,0,.07-.09-.06Zm2.14-.09,0,.06,0,.05Zm-4-.46a.09.09,0,0,1,0-.12.12.12,0,0,1,.21,0c0,.07,0,.11,0,.11a.15.15,0,0,1-.11.06.14.14,0,0,1-.1-.08m4-.46.05-.07,0,.09Zm-2.46-.23c0-.12,0-.16.14-.14s.05,0,.07.07,0,.17-.07.19h-.05c-.06,0-.09,0-.09-.13m1.1-.53a.06.06,0,0,1,0-.05l.1,0,0,.11h-.05l-.06,0s0,0,0-.07m-3.28-1.68a.11.11,0,0,1,0-.11s0,0,.1,0a.49.49,0,0,1,0,.13c0,.06-.05.09-.08.09s0,0-.08-.09m1.12-.3h.08l0,.09Zm-2.38.12c-.09,0-.14-.05-.14-.16s.05-.15.16-.14.13.05.14.16-.05.14-.13.14h0m-1.09-.28a.18.18,0,0,1,0-.06l0,0,.09,0v.18l-.12-.12m2.12-1,0,.09a1.11,1.11,0,0,1-.09.16c0-.15,0-.24.06-.25m-2.64-.1a.23.23,0,0,0,0,.09l-.1,0a.14.14,0,0,1,.13-.11m.37-1.49,0,.09h-.12l.07-.08Zm.59-1.08,0-.11.12.07h0l0,.1Zm2.09-.57a.11.11,0,0,1,.09-.07l.14,0,0,.16-.07.09c-.11,0-.15-.05-.12-.16m-1.32-.25v0m1.14-1.29c0-.08,0-.12,0-.12a.15.15,0,0,1,.23,0,.16.16,0,0,1,0,.12.19.19,0,0,1-.18.18c-.1,0-.15-.06-.14-.18m-1.61-1.88.18.49a1,1,0,0,1-.18-.49m-1.08-.24h.07l-.11.16a1.36,1.36,0,0,1,0-.17m.85,0s0-.08,0-.11.11,0,.16.23a.25.25,0,0,1-.19-.12m1.73-1.58.07,0-.07,0Zm-.76-.12c-.09,0-.12-.07-.09-.16a.11.11,0,0,1,.11-.06c.08,0,.13,0,.14.11a.11.11,0,0,1-.12.11h0m.64-.93s.06-.05.11,0a.44.44,0,0,0,.05.09c0,.06-.06.09-.07.09s-.15-.05-.09-.15m2.14-1.57c.05,0,0,.06-.06.07l.06-.07m.06-1.06.08,0,0,.09h-.09Zm4.23-3.07a16.54,16.54,0,0,0-2.23.46,12.26,12.26,0,0,0-6.45,4.45,13.59,13.59,0,0,0-2.58,7.38,5.31,5.31,0,0,0,.05,1c0,.09,0,.25,0,.46a2.79,2.79,0,0,1,.06.48,7.57,7.57,0,0,0,.28,1.45,12.59,12.59,0,0,0,10,9.24,6.21,6.21,0,0,0,.93.07l.27,0a.37.37,0,0,0,.28-.27,1.27,1.27,0,0,0,.13-.51c0-1.31,0-3,0-5.14a2.57,2.57,0,0,0,0-.39.59.59,0,0,0-.34-.4l-.37-.13a4.47,4.47,0,0,1-.9-.28,5.48,5.48,0,0,1-3-2.83,5.29,5.29,0,0,1-.31-4.17,5.58,5.58,0,0,1,3.62-3.71,3.85,3.85,0,0,1,.46-.14,3,3,0,0,0,.44-.15.57.57,0,0,0,.41-.49,8,8,0,0,0,.05-.82l0-2.14V280.7a8.73,8.73,0,0,0,0-1,1.15,1.15,0,0,0-.11-.39.39.39,0,0,0-.3-.23l-.32,0h-.08m5.19,23h.08l-.05.09Zm-.68.16v-.11c0-.06,0-.08.07-.07l.14,0s0,.05,0,.16a.23.23,0,0,1,0,.11l-.06,0c-.05,0-.08-.05-.1-.13m1.47-1-.07-.18.2.07,0,.11-.07,0s0,0,0,0m-3.24-.61c0-.13,0-.17.13-.12s0,0,.07.11l-.09.07a.13.13,0,0,1-.11-.06m3.76-.26.08-.07h0l.07.07s-.07.07-.09.07Zm-3-.18c0-.11.09-.09.14,0a.62.62,0,0,1,.06.17l-.17-.11a.11.11,0,0,1,0-.1m1.4.53s0-.06-.06-.12,0-.1,0-.25a.21.21,0,0,1,.09-.23s.08,0,.14.05a.24.24,0,0,1,.09.2,1,1,0,0,1-.06.25.14.14,0,0,1-.13.12l-.06,0m2.65-.74-.09-.18q.3.17.18.21h0a.1.1,0,0,1-.07,0m-3.34-.16.09,0V300Zm2.18-.39a.25.25,0,0,1,0,.07c-.05,0,0,0,0-.07m1.84-.59a.13.13,0,0,1-.07-.1.19.19,0,0,1,.17-.18,1.34,1.34,0,0,1,.73.21.18.18,0,0,1,0,.11c0,.12,0,.18-.14.18H246a1,1,0,0,1-.66-.22m-2.8-.28c-.12,0-.15-.08-.11-.18a.28.28,0,0,1,.23-.07c.05,0,.08,0,.09.07a.11.11,0,0,1,0,.11.16.16,0,0,1-.15.08h-.06m3.91-.39,0-.1.11,0q0,.12,0,.12a.17.17,0,0,1-.1-.05m-5.28-.12.4.3a.47.47,0,0,1-.4-.3m2.48.1a.18.18,0,0,1-.07-.23,1,1,0,0,1,.11-.23s.13-.14.32-.37c0,.31.05.47.05.48a.41.41,0,0,1-.18.32.2.2,0,0,1-.14.06l-.09,0m1-1.43-.05.11,0,0-.15.08c.08-.13.16-.2.22-.21m1,0,.29-.21a2.35,2.35,0,0,1-.11.36s-.05.05-.11.05-.18-.09-.07-.2m1.06-.6h0v.09Zm.46-.19q.17,0,.18.12a.11.11,0,0,1,0,.11.23.23,0,0,1-.12,0l-.12,0-.31-.09.41-.17m1.15-.43.15-.11.07,0c0,.06,0,.09,0,.09l-.18,0m1-1.15c.12-.05.15,0,.1.12h-.12c0-.07,0-.11,0-.12m-.78-.12a.12.12,0,0,1,0,.1.16.16,0,0,1-.15.18h-.24l-.37-.07h0l.54-.3a.18.18,0,0,1,.21.09m-1.68.55c-.06,0-.09-.08-.07-.11a1.07,1.07,0,0,1,.62-.92.15.15,0,0,1,.23.07.73.73,0,0,1,.08.25,1.61,1.61,0,0,1,0,.35.37.37,0,0,0-.53.05.9.9,0,0,1-.07.11l-.07.11a.53.53,0,0,1-.11.09h-.12m-.94-1.65c-.08,0-.13-.08-.13-.21v-.13a1.46,1.46,0,0,1,0-.26.16.16,0,0,1,.19-.16c.11,0,.15.09.13.21L246,293c0,.11-.06.16-.11.16h0m2.64.09a.64.64,0,0,1-.59-.6v-.13c0-.12,0-.19.13-.21s.17,0,.19.12a.76.76,0,0,0,.44.59l.44.26-.61,0m-3.17-2.5h0v0Zm4-.11.06.06-.16.07.1-.13m-3.71-.26a1.21,1.21,0,0,1-.21.31l.21-.31m1.54.21c-.11,0-.15-.1-.13-.19s.07-.12.18-.09.15.08.12.17a.13.13,0,0,1-.14.11h0m-1.29-.34.14,0-.14,0m2.44-.33c0-.11.06-.16.16-.14a.1.1,0,0,1,.1.05q.08.17-.09.21h0c-.06,0-.1,0-.13-.13m-1.74-1.83c.07-.19.22-.24.44-.16s.19.16.13.34-.16.27-.29.23l-.12,0a1,1,0,0,0-.21-.12h0c0-.13,0-.21,0-.25m1.68-.21h0l-.06.08Zm.07-.07.09,0-.09,0Zm-4.12-.11a.21.21,0,0,1-.16-.19.2.2,0,0,1,.12-.2l.25-.05c.11,0,.18,0,.23.05a.21.21,0,0,1,0,.25l-.12.18h-.2Zm.87-1.45q-.1-.21.24-.21l.15,0a.15.15,0,0,1,.14.17.16.16,0,0,1-.18.15l-.14,0h0a.16.16,0,0,1-.17-.11m2.44,0a.12.12,0,0,1,0-.16.16.16,0,0,1,.21-.07.15.15,0,0,1,.11.18c0,.11-.08.16-.16.16a.17.17,0,0,1-.16-.11m-3.84-.23s0,0,.09,0a.65.65,0,0,0,0,.1.23.23,0,0,1-.11,0,.66.66,0,0,1,0-.11m-1,0a1.49,1.49,0,0,1,.07-.54.8.8,0,0,1,.13-.21,1.5,1.5,0,0,1,.76-.53.18.18,0,0,1,.21.12.43.43,0,0,1-.09.38.47.47,0,0,1-.19.17.83.83,0,0,0-.43.66c0,.08-.07.13-.17.16h-.09c-.12,0-.19-.08-.2-.22m-1.82-1.4a.23.23,0,0,1,.18.14h0l0,0a.21.21,0,0,1-.11-.19m5.13-.77.09,0V284Zm-.72-.67,0,0-.14-.16,0-.1a.26.26,0,0,1,.23.09q.12.12,0,.21h0a.09.09,0,0,1-.06,0m-2.37-.46a.39.39,0,0,1,.44.13l.25.26,0-.12,0,.08a1.12,1.12,0,0,0,.05.13.42.42,0,0,1,0,.12c.06.11.06.19,0,.23s-.14.06-.25,0a.8.8,0,0,0-.23-.1.61.61,0,0,0-.39,0l-.54.21-.55.22a.14.14,0,0,1-.13,0c-.07-.06-.07-.14,0-.23a1.87,1.87,0,0,1,.83-.77h0l.48-.09m-.59-.14,0-.11a.44.44,0,0,1,.08.28,1,1,0,0,0-.1-.17m-.25-1.08a.49.49,0,0,0,0-.11c0-.13.09-.26.28-.4s.1,0,.13,0,.1.12,0,.21a3.71,3.71,0,0,1-.26.28.12.12,0,0,1-.09,0h0m-3.13-1.93c0,.44,0,.8,0,1.08v4.18c0,.19,0,.37,0,.55a.57.57,0,0,0,.41.49l.44.15a3.26,3.26,0,0,1,.46.12,5.61,5.61,0,0,1,3.38,3.08,4.93,4.93,0,0,1,.46,1.56,5.52,5.52,0,0,1-.21,2.51,5.77,5.77,0,0,1-1.49,2.39,5.53,5.53,0,0,1-2.42,1.4l-.27.06-.27.07a.62.62,0,0,0-.49.58c0,.45,0,.8,0,1.06v1.76c0,1.38,0,2.19,0,2.44,0,.07,0,.25.07.53a.45.45,0,0,0,.45.43h.4a6.76,6.76,0,0,0,1.31-.23,12.35,12.35,0,0,0,7.34-4.72,11.53,11.53,0,0,0,2.1-4.49c0,.09.08-.53.32-1.85a5.18,5.18,0,0,0,.07-1.62,21.15,21.15,0,0,0-.42-2.79,12.65,12.65,0,0,0-10.8-9.25h-.2a.53.53,0,0,0-.6.52" transform="translate(-6.75 -6.75)"></path> <path id="SVGID-4" data-name="SVGID" class="cls-25" d="M268.85,302.94l.06-.11.1.05L269,303a.27.27,0,0,0-.11-.05m-4.76-.64s0-.05,0,0,0,.07,0,.13v0c0-.09,0-.13,0-.13m4.2-.05.07.05-.09,0Zm-1.77-.22.07.08-.09,0Zm1,0a.12.12,0,0,1,.05-.11c.13-.06.17,0,.12.13a2.81,2.81,0,0,1-.14.33c0-.18,0-.3,0-.35m4.57-.46c0-.05,0-.08,0-.11a.15.15,0,0,1,.2.09.4.4,0,0,0-.06.11l-.08,0c-.05,0-.08,0-.09-.11m-6.89-.12c.06,0,.09,0,.09.05s0,.15-.15.16a.15.15,0,0,1,.06-.21m4.5-.06.21.49a2.61,2.61,0,0,1-.73-.24,1.94,1.94,0,0,1,.52-.25m-2.43-.53,0,0Zm-4.07,1.63a.6.6,0,0,1-.15-.14.46.46,0,0,0-.14-.14.44.44,0,0,1-.12-.36c0-.12.12-.42.25-.9a.17.17,0,0,1,.12-.13.23.23,0,0,1,.2,0,.19.19,0,0,1,.08.23.62.62,0,0,1,0,.13c-.07.21-.1.3-.09.25a.65.65,0,0,0,.16.62l.24.31.33.18a4.45,4.45,0,0,1-.52.07h-.05a.38.38,0,0,1-.3-.12m1.84-2a.23.23,0,0,1-.2-.14.17.17,0,0,1,.06-.23l.26-.16a.2.2,0,0,1,.2.09.2.2,0,0,1,.07.18.34.34,0,0,1-.36.27h0m3-.4a3.24,3.24,0,0,1,.07-.39.54.54,0,0,1,.07-.13.11.11,0,0,1,.11,0c.06,0,.1,0,.11.05a1.38,1.38,0,0,1,0,.26c0,.05,0,.27,0,.65-.27-.07-.39-.21-.36-.43m-6.51-.55h0m-.16-.16.05-.05,0,.1,0,.07-.12-.12m5,.55a1.15,1.15,0,0,1-.24-.13.16.16,0,0,1-.07-.16.18.18,0,0,1,.09-.17,1.12,1.12,0,0,1,.75-.25c.12,0,.18,0,.19.12a.09.09,0,0,1-.05.11.65.65,0,0,0-.36.37c0,.1-.08.15-.16.15a.28.28,0,0,1-.15,0m2.76.28a.75.75,0,0,1,.18-.85,1.2,1.2,0,0,1,.35-.14.21.21,0,0,1,.25,0c.06.08,0,.16-.07.23a1,1,0,0,0-.34.67.19.19,0,0,1-.18.18.22.22,0,0,1-.19-.14m-7.17-.69s0-.12,0-.23a.41.41,0,0,1,.12-.32l.36-.32,0,0c.11.29.16.46.18.5a.32.32,0,0,0,.28.22c-.07.26-.11.39-.11.38-.11.25-.26.52-.42.81a.9.9,0,0,1-.21.16.19.19,0,0,1-.13,0c-.12,0-.17-.09-.16-.2s.05-.29.13-.65a1,1,0,0,0,0-.39h0m1.13-.25a2,2,0,0,0,.77-.72,2.6,2.6,0,0,1,.17.31.39.39,0,0,1,0,.36.53.53,0,0,1-.51.3l-.59-.13.2-.12m.8-.76h0m-.48.12c-.1-.1-.07-.15.07-.14l.37,0-.32.12h0a.11.11,0,0,1-.08,0m6.92-.16a.07.07,0,0,1,.09.06s0,0,0,.12h-.12c-.1-.09-.08-.15.05-.18m-4.64-.12h0m2.87,0a.46.46,0,0,1-.14.29.25.25,0,0,1-.23.06q-.09,0-.09-.09t.12-.18l.11,0,.23-.05m-2.35,0a.16.16,0,0,1,.19.13c0,.09,0,.16-.11.21a1.53,1.53,0,0,1-.24.07c-.24,0-.35-.06-.34-.28v-.11l.5,0m4.9,0a.11.11,0,0,1,.11,0q.12.09,0,.18h-.11q-.11-.08,0-.18m-2.32-.05v.09a.4.4,0,0,0-.12,0h-.05l.17,0m-3.54,0c-.06-.13,0-.17.12-.11l.29.16h-.3c-.06,0-.1,0-.11-.05m1.84-1v0h-.8l-4.72,0-.94,0a.43.43,0,0,0-.44.43c0,.22-.05.36-.06.4,0,.25,0,.47,0,.68q0,.82,0,3.63v.67c0,.07,0,.16,0,.27,0,.4.24.6.58.62h12.4l.41-.06c.22,0,.34-.14.35-.33s.05-.5.05-.54c0-1.1,0-2.72,0-4.85a3.44,3.44,0,0,0,0-.4.28.28,0,0,0,0-.08v-.07a.45.45,0,0,0-.37-.35,4.24,4.24,0,0,0-.94-.07Zm-12.48,4.6a1.14,1.14,0,0,1-.07-.21l.21,0c.08,0,.09.1,0,.19a.08.08,0,0,1-.08.06.08.08,0,0,1-.09-.06m-.25-.55.19,0c0,.12,0,.22,0,.28a1.75,1.75,0,0,1-.17-.3m-.06-1.32a.54.54,0,0,0,.22.28l.18.07a.52.52,0,0,1,.17.09.15.15,0,0,1,.09.21,1.51,1.51,0,0,1-.39.65l-.1-.19-.94-1.06.77-.05m1.42,0,.09,0v.11Zm-1.25-.41a.18.18,0,0,1,.23,0c.07,0,.07.11,0,.21a.44.44,0,0,1-.3.21l-.11,0a.44.44,0,0,1,.17-.43m3,.22a.45.45,0,0,1-.08-.69c.11-.15.22-.16.34,0a.84.84,0,0,1,.3.41.25.25,0,0,1-.09.23.54.54,0,0,1-.32.15.2.2,0,0,1-.15-.06m-3.8-.86a.09.09,0,0,1,0-.1c.07-.08.13-.08.18,0l0,.1a.11.11,0,0,1-.09.05s-.06,0-.09-.07m2.32-.44h.08l0,.07Zm1.3-.33c-.06-.09,0-.15.05-.2a.09.09,0,0,1,.11,0l.07.12-.14.07Zm.32-1.9.1,0-.07.09Zm-1.65-.05-.08-.2c.19.06.25.13.19.2l-.07,0a.05.05,0,0,1,0,0m-.14-.37,0,.05V296c-.06,0-.08-.09,0-.13m-2.53-.53c0-.05,0-.09,0-.11l.1-.11.09.13v.1s-.07.06-.1.06a.09.09,0,0,1-.09-.07m1.66-.59,0,.11h-.09Zm2.89-1.73a.13.13,0,0,1,0-.2.19.19,0,0,1,.13,0c.09,0,.11.1.05.2a.12.12,0,0,1-.19,0m-4.17-1.47c0-.11,0-.13.13-.06a.08.08,0,0,0,0,.06l0,0Zm.05-.67-.06.08c-.08,0-.06-.07.06-.08m3.55-.93a.15.15,0,0,1,.07-.21.17.17,0,0,1,.21.09.12.12,0,0,1-.08.19l-.08,0a.12.12,0,0,1-.12-.09m.09-1.43c-.08-.07-.1-.14-.05-.21s.1-.11.21-.07l.12.05s0,.05,0,.14l-.05.11-.11,0a.24.24,0,0,1-.14-.05m0-1.6h.07l0,.06Zm-3.88-1.27h.09l0,.07Zm2.3-2.21c-.1,0-.15-.09-.12-.18s0-.05.1,0a.14.14,0,0,1,.11.06,1.64,1.64,0,0,1,.22.23l-.31-.07m1.12-2.61a.08.08,0,0,1-.07-.09v-.12l.16,0,.07.09c0,.07-.05.11-.11.11h-.05m-.78-.56h0m-.41-1.26c-1.24,0-2,0-2.42,0a5.37,5.37,0,0,0-.54.05.28.28,0,0,0-.26.27,3.19,3.19,0,0,0-.07.4c0,.64,0,1.31,0,2v20.77c0,.27,0,.55,0,.82,0-.05,0,0,0,.26s.14.35.34.37l.41.08h5.11l.41-.06a.4.4,0,0,0,.36-.35l.07-.41c0-.5,0-1,0-1.47v-2.3c0-1,0-1.77,0-2.28,0-1.12,0-2.63,0-4.54V280.17a3.35,3.35,0,0,0-.08-.82.44.44,0,0,0-.39-.32l-.68,0Z" transform="translate(-6.75 -6.75)"></path> <path class="cls-26" d="M233.42,125.62c-4.52-3-12.28-4.9-20.27-4.9a43.88,43.88,0,0,0-18,3.55,10.12,10.12,0,0,0-6.13,6.93c-1.09,4.6.85,10.81,5.2,16.62,3.42,4.57,15.49,19.48,26.94,19.48a12.62,12.62,0,0,0,1.51-.09c12.49-1.48,16.22-12.58,17.25-17.29C242.12,140,239.31,129.57,233.42,125.62Z" transform="translate(-6.75 -6.75)"></path> <path class="cls-27" d="M127.86,125.62c4.52-3,12.29-4.9,20.27-4.9a43.88,43.88,0,0,1,18,3.55,10.12,10.12,0,0,1,6.13,6.93c1.1,4.6-.85,10.81-5.2,16.62-3.42,4.57-15.49,19.48-26.94,19.48a12.75,12.75,0,0,1-1.51-.09c-12.49-1.48-16.22-12.58-17.24-17.29C119.16,140,122,129.57,127.86,125.62Z" transform="translate(-6.75 -6.75)"></path> <path class="cls-17" d="M243.19,137.3h-2.7c0,.09,0,.18,0,.28h2.66C243.26,137.28,243.19,137.3,243.19,137.3Z" transform="translate(-6.75 -6.75)"></path> <path class="cls-28" d="M242.32,136.4h-2c.06.31.13.62.18.93h2.71A.8.8,0,0,0,242.32,136.4Z" transform="translate(-6.75 -6.75)"></path> <path class="cls-29" d="M240.69,138.5h1.73c.42,0,.78-.2.79-.95h-2.68C240.59,137.86,240.64,138.18,240.69,138.5Z" transform="translate(-6.75 -6.75)"></path> <path class="cls-30" d="M233.41,124.88c-4.61-3.09-12.16-4.94-20.2-4.94a43.39,43.39,0,0,0-17.78,3.53,11,11,0,0,0-6.65,7.61c-1.16,4.84.8,11.26,5.24,17.18s15.65,19.27,26.94,19.27a14,14,0,0,0,1.6-.09c8.92-1.06,15.54-7.68,17.72-17.7C242.42,139.91,239.73,129.11,233.41,124.88Zm6.11,24.68c-2.12,9.72-8.55,16.14-17.19,17.17a13.47,13.47,0,0,1-1.56.09c-11,0-21.92-13.07-26.13-18.69s-6.2-12-5.08-16.67a10.7,10.7,0,0,1,6.45-7.38,42.07,42.07,0,0,1,17.25-3.43c7.79,0,15.11,1.79,19.59,4.79C239,129.55,241.59,140,239.52,149.56Z" transform="translate(-6.75 -6.75)"></path> <path class="cls-31" d="M188.1,129.61c-.59-1.29-2.24-2.48-7.78-2.43-5.12,0-6.55,1.14-7.14,2.43a14.06,14.06,0,0,0-.57,4.9c.08.66.85.85.8.33a14.47,14.47,0,0,1,.52-4.66c.53-1.23,1.82-2.22,6.42-2.26,5,0,6.48,1,7,2.26a12.51,12.51,0,0,1,.52,4.61c-.08.75.72.36.8-.33A12.24,12.24,0,0,0,188.1,129.61Z" transform="translate(-6.75 -6.75)"></path> <path class="cls-17" d="M180.34,127.65c-4.81,0-6.15,1.08-6.71,2.38a14.92,14.92,0,0,0-.54,4.9,1.17,1.17,0,0,0,0,.2c.16,0,.29-.07.27-.29a14.47,14.47,0,0,1,.52-4.66c.53-1.23,1.82-2.22,6.42-2.26,5,0,6.48,1,7,2.26a12.51,12.51,0,0,1,.52,4.61c0,.3.08.41.22.4a1,1,0,0,0,.1-.31,13.15,13.15,0,0,0-.54-4.85C187.1,128.73,185.55,127.6,180.34,127.65Z" transform="translate(-6.75 -6.75)"></path> <path class="cls-17" d="M118.1,137.3h2.69c0,.09,0,.18-.05.28h-2.66C118,137.28,118.1,137.3,118.1,137.3Z" transform="translate(-6.75 -6.75)"></path> <path class="cls-32" d="M118.91,136.4H121c-.07.31-.13.62-.19.93h-2.71A.78.78,0,0,1,118.91,136.4Z" transform="translate(-6.75 -6.75)"></path> <path class="cls-33" d="M120.59,138.5h-1.72c-.32,0-.82.06-.8-.95h2.68C120.69,137.86,120.64,138.18,120.59,138.5Z" transform="translate(-6.75 -6.75)"></path> <path class="cls-34" d="M121,149.74c2.18,10,8.81,16.64,17.72,17.7a14.3,14.3,0,0,0,1.6.09c11.29,0,22.6-13.47,26.94-19.27s6.4-12.34,5.25-17.18a11.06,11.06,0,0,0-6.66-7.61,43.33,43.33,0,0,0-17.78-3.53c-8,0-15.58,1.85-20.2,4.94C121.55,129.11,118.86,139.91,121,149.74Zm7.43-24.3c4.48-3,11.8-4.79,19.59-4.79a42.07,42.07,0,0,1,17.25,3.43,10.71,10.71,0,0,1,6.46,7.38c1.12,4.69-.78,10.92-5.09,16.67s-15.18,18.69-26.13,18.69a13.3,13.3,0,0,1-1.55-.09c-8.65-1-15.08-7.45-17.2-17.17C119.69,140,122.3,129.55,128.43,125.44Z" transform="translate(-6.75 -6.75)"></path> <path class="cls-17" d="M128.22,125c4.43-3,12.05-4.82,19.88-4.82a42.88,42.88,0,0,1,17.6,3.62c3.27,1.49,5.56,4.48,6,6.67a13.1,13.1,0,0,1,.28,2.92,10.66,10.66,0,0,0-.43-2.42c-.72-3-3.33-5.4-5.83-6.57a42.06,42.06,0,0,0-17.64-3.71c-7.83,0-15.85,2.25-19.43,4.6-4,2.64-7.7,9.92-7.59,17.28C121,135.44,123.69,128,128.22,125Z" transform="translate(-6.75 -6.75)"></path> <path class="cls-17" d="M121,149.28c2.18,10,8.81,16.65,17.72,17.7a12.32,12.32,0,0,0,1.61.1c11.28,0,22.59-13.48,26.93-19.27,3.54-4.72,5.49-9.75,5.56-14,.08,4.4-1.89,9.64-5.56,14.54-4.34,5.79-15.65,19.26-26.93,19.26a14.35,14.35,0,0,1-1.61-.09c-8.91-1.06-15.54-7.68-17.72-17.7a31.66,31.66,0,0,1-.72-6.9A31.54,31.54,0,0,0,121,149.28Z" transform="translate(-6.75 -6.75)"></path> <path class="cls-17" d="M233.06,125c-4.43-3-12.05-4.82-19.88-4.82a42.92,42.92,0,0,0-17.6,3.62c-3.27,1.49-5.56,4.48-6,6.67a13.1,13.1,0,0,0-.28,2.92,11.24,11.24,0,0,1,.43-2.42c.72-3,3.33-5.4,5.83-6.57a42.1,42.1,0,0,1,17.64-3.71c7.83,0,15.85,2.25,19.43,4.6,4,2.64,7.7,9.92,7.59,17.28C240.31,135.44,237.6,128,233.06,125Z" transform="translate(-6.75 -6.75)"></path> <path class="cls-17" d="M240.28,149.28c-2.18,10-8.81,16.65-17.72,17.7a12.17,12.17,0,0,1-1.6.1c-11.29,0-22.6-13.48-26.94-19.27-3.53-4.72-5.49-9.75-5.56-14-.08,4.4,1.89,9.64,5.56,14.54,4.34,5.79,15.65,19.26,26.94,19.26a14.17,14.17,0,0,0,1.6-.09c8.91-1.06,15.54-7.68,17.72-17.7a31.66,31.66,0,0,0,.72-6.9A31.54,31.54,0,0,1,240.28,149.28Z" transform="translate(-6.75 -6.75)"></path> <path class="cls-35" d="M201.44,121.43c-1.61.64-8.86,0-23.91,0-13.87,0-15.91.64-17.51,0-1.92-.76.23-.69.23-.69h17.28c13.87,0,23.67,0,23.67,0S203.36,120.67,201.44,121.43Z" transform="translate(-6.75 -6.75)"></path> <path class="cls-17" d="M202,120.8a4,4,0,0,1-.59.29c-1.61.63-8.86,0-23.91,0-13.87,0-15.91.63-17.51,0a4.27,4.27,0,0,1-.6-.29c-.3.08-.36.25.6.63,1.6.64,3.64,0,17.51,0,15.05,0,22.3.64,23.91,0C202.4,121.05,202.34,120.88,202,120.8Z" transform="translate(-6.75 -6.75)"></path> </svg> 